<?xml version="1.0" standalone="no"?>
<!DOCTYPE svg PUBLIC "-//W3C//DTD SVG 1.1//EN" "http://www.w3.org/Graphics/SVG/1.1/DTD/svg11.dtd" >
<!--
2013-9-30: Created.
-->
<svg>
<metadata>
Created by iconfont
</metadata>
<defs>

<font id="iconfont" horiz-adv-x="1024" >
  <font-face
    font-family="iconfont"
    font-weight="500"
    font-stretch="normal"
    units-per-em="1024"
    ascent="896"
    descent="-128"
  />
    <missing-glyph />
    
    <glyph glyph-name="pengyouquan" unicode="&#59143;" d="M708.16 418.656 708.16 737.696c0 0-157.696 83.648-341.76 19.136L708.16 418.656zM738.048 231.008 738.048 724.512c0 0 186.432-83.648 238.976-286.784L738.048 231.008zM637.76 87.584l344.128 320.32c0 0 60.928-97.984-29.888-320.32L637.76 87.584zM462.016 46.944l464.832 0c0 0-56.128-150.592-256.96-212.672L462.016 46.944zM310.272 148.576l0-299.904c0 0 120.704-76.544 327.488-25.152L310.272 148.576zM41.344 133.024l235.456 209.152 0-475.584C276.8-133.408 134.592-84.512 41.344 133.024zM35.392 166.496c0 0-53.824 172.032 21.504 321.408l323.84 0L35.392 166.496zM77.248 521.44c0 0 68.096 152.896 253.312 224.64l221.056-224.64L77.248 521.44z"  horiz-adv-x="1024" />

    
    <glyph glyph-name="tongyong_jiantou_xiangxia" unicode="&#58921;" d="M98.944 896H1690.88c73.984 0 129.152-49.536 85.76-98.432-34.56-39.296-734.464-823.296-794.368-890.24-39.296-43.904-133.12-43.264-172.416 0C765.952-44.544 62.464 742.528 13.696 799.616-22.144 841.216 17.408 896 98.944 896z"  horiz-adv-x="1792" />

    
    <glyph glyph-name="back" unicode="&#58880;" d="M922.49 381.51h-859.116c-18.841 0-34.116 14.222-34.116 31.766s15.275 31.767 34.116 31.767h859.114c18.841 0 34.116-14.222 34.116-31.767s-15.275-31.766-34.116-31.766zM480.708-63.1c-8.13 0-16.26 3.1-22.463 9.303l-443.723 443.725c-12.406 12.406-12.406 32.52 0 44.925l16.869 16.868c12.406 12.405 32.519 12.405 44.925 0 10.473-10.474 12.104-26.443 4.892-38.628l421.962-421.963c12.406-12.406 12.406-32.519 0-44.925-6.203-6.204-14.332-9.304-22.462-9.304zM131.782 475.42c-8.13 0-16.26 3.102-22.463 9.304-12.406 12.406-12.406 32.519 0 44.925l349.752 349.753c12.406 12.405 32.52 12.405 44.925 0 12.405-12.406 12.405-32.519 0-44.925l-349.75-349.752c-6.204-6.202-14.334-9.304-22.464-9.304z"  horiz-adv-x="1024" />

    
    <glyph glyph-name="check" unicode="&#58901;" d="M504.8421875 868.581875C244.1628125 868.581875 32.841875 657.26 32.841875 396.5815625s211.321875-472.00125 472.0003125-472.00125 472.0003125 211.321875 472.0003125 472.0003125S765.520625 868.581875 504.8421875 868.581875z m249.4096875-436.978125L501.4971875 179.7940625a59.000625 59.000625 0 0 0-41.6409375-17.203125h-0.140625a59.00625 59.00625 0 0 0-41.7 17.4009375L255.2346875 343.71875c-22.9734375 23.1065625-22.865625 60.4640625 0.241875 83.439375 23.1065625 22.9734375 60.4640625 22.865625 83.4384375-0.241875l121.1409375-121.8440625 210.915 210.1275c23.085 22.996875 60.440625 22.9275 83.439375-0.1565625 22.996875-23.0840625 22.9265625-60.440625-0.1575-83.4384375z"  horiz-adv-x="1024" />

    
    <glyph glyph-name="checkb" unicode="&#58887;" d="M799.53-63.41h-575.646c-88.17 0-159.902 71.732-159.902 159.902v575.645c0 88.17 71.732 159.902 159.902 159.902h575.647c88.17 0 159.901-71.731 159.901-159.902 0-17.662-14.318-31.98-31.98-31.98s-31.98 14.318-31.98 31.98c0 52.902-43.040 95.942-95.941 95.942h-575.647c-52.902 0-95.941-43.040-95.941-95.942v-575.645c0-52.902 43.040-95.941 95.941-95.941h575.647c52.901 0 95.94 43.039 95.94 95.94v254.839c0 17.662 14.319 31.98 31.981 31.98s31.98-14.318 31.98-31.98v-254.837c0-88.17-71.732-159.902-159.902-159.902zM509.892 129.283c-16.494 0-32.923 6.35-45.361 18.853l-193.907 194.93c-24.913 25.044-24.806 65.541 0.237 90.454s65.543 24.805 90.454-0.238l152.901-153.707 344.41 282.857c27.297 22.42 67.602 18.463 90.022-8.834s18.464-67.603-8.834-90.022l-389.344-319.76c-11.85-9.733-26.238-14.533-40.579-14.533z"  horiz-adv-x="1024" />

    
    <glyph glyph-name="close" unicode="&#58893;" d="M557.568 385.194l329.402 329.403c12.489 12.49 12.489 32.74 0 45.228-12.49 12.488-32.737 12.488-45.227 0l-704.034-704.035c-12.49-12.49-12.49-32.738 0-45.227 6.246-6.245 14.43-9.366 22.614-9.366s16.37 3.122 22.614 9.366l329.404 329.403 329.403-329.403c6.245-6.245 14.43-9.366 22.614-9.366s16.369 3.122 22.614 9.366c12.489 12.49 12.489 32.737 0 45.227l-329.404 329.404zM392 460.308c6.245-6.244 14.43-9.366 22.614-9.366s16.369 3.122 22.614 9.366c12.49 12.49 12.49 32.739 0 45.227l-254.292 254.29c-12.489 12.489-32.737 12.489-45.227 0-12.49-12.489-12.49-32.738 0-45.226l254.291-254.291z"  horiz-adv-x="1024" />

    
    <glyph glyph-name="bed" unicode="&#58888;" d="M128.576 319.71v-287.814c0-17.663 14.318-31.98 31.98-31.98 17.663 0 31.981 14.317 31.981 31.98v31.972h639.151v-31.972c0-17.663 14.318-31.98 31.98-31.98 17.663 0 31.98 14.317 31.98 31.98v31.972h0.456v255.842s-132.974 128.937-383.764 128.937-383.764-128.936-383.764-128.936zM764.777 329.376c30.14-14.627 52.746-29.394 67.367-40.070v-161.476h-639.607v161.475c14.621 10.677 37.227 25.444 67.367 40.070 33.115 16.070 68.79 28.868 106.036 38.037 46.565 11.463 95.822 17.275 146.4 17.275 50.58 0 99.837-5.813 146.401-17.275 37.246-9.169 72.922-21.966 106.036-38.036zM886.531 669.16c-23.524 23.514-52.19 35.347-82.974 34.213-28.815-1.061-58.632-13.091-88.621-35.758l-0.048-0.035c-7.364 13.771-16.994 29.527-29.149 45.274-46.201 59.849-106.678 91.483-174.887 91.483-68.235 0-128.362-31.29-173.878-90.485-12.44-16.179-22.15-32.37-29.456-46.37-7.942 5.304-16.943 10.626-26.719 15.274-52.385 24.907-102.744 19.203-141.798-16.058-38.162-34.455-51.205-86.752-37.716-151.236 9.273-44.327 28.151-79.663 28.951-81.145 5.78-10.722 16.797-16.812 28.179-16.812 5.551 0 10.769 1.421 15.313 3.919 15.38 8.296 21.19 27.694 12.809 43.241-0.576 1.069-56.13 108.101-4.674 154.558 12.203 11.017 32.758 23.663 70.226 6.354 25.618-11.835 44.854-31.32 44.975-31.442 7.809-8.187 19.292-11.563 30.31-9 11.020 2.561 19.794 10.83 23.191 21.62 0.42 1.337 43.417 133.622 160.287 133.622 47.796 0 89.235-21.938 123.164-65.202 27.21-34.7 39.204-70.488 39.294-70.762 4.287-12.949 16.284-22.126 30.425-22.126 9.656 0 18.313 4.279 24.176 11.045 10.028 11.618 45.802 44.94 77.999 46.125 13.044 0.469 24.32-4.454 35.403-15.532 21.035-21.025 27.271-52.792 18.537-94.415-7.442-35.47-23.201-64.172-23.326-64.399-8.626-15.413-3.124-34.9 12.29-43.525 15.411-8.625 34.899-3.123 43.524 12.29 0.816 1.457 20.080 36.193 29.735 80.739 13.872 63.996 1.58 117.438-35.542 154.545z"  horiz-adv-x="1024" />

    
    <glyph glyph-name="date" unicode="&#58891;" d="M831.304 832.955h-127.516v36.657h-63.96v-36.657h-255.815v36.657h-63.96v-36.657h-128.356c-70.65 0-127.921-57.272-127.921-127.921v-639.607c0-70.649 57.272-127.921 127.921-127.921h447.725c176.623 0 319.804 143.18 319.804 319.804v447.724c-0.001 70.649-57.274 127.921-127.923 127.921zM875.187 157.743c-12.883-30.458-31.339-57.825-54.856-81.343-23.516-23.516-50.884-41.973-81.342-54.855-31.5-13.324-65-20.080-99.566-20.080h-447.725c-35.268 0-63.96 28.693-63.96 63.961v446.4h62.261v63.961h-62.262v129.247c0 35.268 28.693 63.96 63.961 63.96h128.355v-31.634c0-17.662 14.318-31.98 31.98-31.98 17.663 0 31.981 14.318 31.981 31.98v31.634h255.813v-31.634c0-17.662 14.318-31.98 31.98-31.98 17.663 0 31.981 14.318 31.981 31.98v31.634h127.517c35.269 0 63.961-28.692 63.961-63.96v-129.247h-447.394v-63.96h447.393v-254.518c0-34.567-6.755-68.066-20.078-99.566zM576.99 288.343v-224.545h63.96v192.564h191.345v63.96h-223.325c-17.663 0-31.98-14.317-31.98-31.98zM256.173 575.786h127.84v-63.96h-127.84v63.96z"  horiz-adv-x="1024" />

    
    <glyph glyph-name="doubt" unicode="&#58908;" d="M925.599 558.432c-21.742 53.308-52.872 101.19-92.528 142.315-39.695 41.167-85.936 73.493-137.438 96.084-53.37 23.412-110.060 35.28-168.495 35.28h-30.862c-51.333 0-101.575-9.227-149.33-27.429-2.229-0.85-4.45-1.718-6.662-2.604-8.234-3.301-12.235-12.651-8.933-20.886 3.3-8.234 12.654-12.233 20.885-8.933 2.045 0.82 4.097 1.62 6.154 2.407 44.086 16.801 90.477 25.321 137.886 25.321h30.862c220.693 0 400.24-186.47 400.24-415.673 0-229.202-179.547-415.67-400.24-415.67h-30.862c-220.694 0-400.24 186.469-400.24 415.671 0 83.64 23.812 164.273 68.862 233.185 4.854 7.425 2.77 17.38-4.655 22.234-7.427 4.855-17.38 2.772-22.235-4.655-48.475-74.152-74.098-160.865-74.098-250.765 0-60.374 11.406-118.955 33.904-174.116 21.742-53.309 52.872-101.19 92.527-142.315 39.695-41.166 85.935-73.494 137.437-96.084 53.37-23.41 110.061-35.282 168.497-35.282h30.862c58.435 0 115.126 11.872 168.496 35.282 51.502 22.59 97.743 54.919 137.438 96.084 39.656 41.125 70.786 89.006 92.528 142.316 22.497 55.16 33.905 113.742 33.905 174.116s-11.407 118.955-33.904 174.117zM512.336 211.748c-35.325 0-63.961-28.636-63.961-63.96 0-35.325 28.636-63.962 63.96-63.962 35.325 0 63.961 28.637 63.961 63.961 0 35.325-28.636 63.96-63.96 63.96zM677.806 501.341c0 93.82-64.5 139.264-152.458 139.264-63.768 0-115.81-30.051-153.923-73.296 0 0-15.448-22.959 8.747-47.154 24.195-24.195 50.624-7.085 50.624-7.085 23.455 24.187 49.109 41.045 81.36 41.045 38.114 0 62.301-23.455 62.301-60.103 0-70.365-124.603-98.856-107.013-216.864 0 0 4.988-20.466 47.284-20.466s46.536 20.466 46.536 20.466c-10.994 103.348 116.542 120.112 116.542 224.193z"  horiz-adv-x="1024" />

    
    <glyph glyph-name="eye" unicode="&#58914;" d="M511.687 192.118c-105.805 0-191.882 86.077-191.882 191.882 0 40.72 12.597 79.624 36.43 112.505 10.363 14.301 30.359 17.493 44.662 7.127 14.301-10.365 17.49-30.36 7.126-44.663-15.87-21.894-24.258-47.819-24.258-74.97 0-70.537 57.386-127.921 127.922-127.921s127.921 57.384 127.921 127.921c0 70.536-57.385 127.921-127.921 127.921-17.662 0-31.98 14.319-31.98 31.98s14.318 31.981 31.98 31.981c105.805 0 191.882-86.077 191.882-191.882-0.001-105.804-86.078-191.881-191.882-191.881zM511.687 64.241c-65.166 0-132.564 16.139-200.32 47.97-53.214 24.998-106.805 59.71-159.281 103.17-88.73 73.488-143.442 146.226-145.728 149.287-3.969 5.268-6.357 11.923-6.357 19.136 0 7.193 2.375 13.832 6.383 19.175 2.226 2.988 56.933 75.979 145.658 149.722 52.477 43.617 106.068 78.452 159.284 103.54 67.768 31.949 135.178 48.148 200.36 48.148s132.592-16.199 200.36-48.148c53.216-25.088 106.807-59.924 159.284-103.54 88.725-73.743 143.43-146.734 145.716-149.805 8.445-11.347 8.43-26.895-0.032-38.228-2.286-3.061-56.997-75.799-145.727-149.285-52.477-43.461-106.067-78.174-159.28-103.171-67.756-31.83-135.154-47.97-200.32-47.97zM72.991 383.84c21.413-25.557 64.068-73.123 121.006-120.12 74.901-61.821 190.817-135.517 317.689-135.517 126.87 0 242.786 73.696 317.687 135.518 56.94 46.996 99.588 94.557 121.006 120.12-21.408 25.646-64.080 73.407-121.046 120.594-74.895 62.039-190.801 135.993-317.647 135.993-126.847 0-242.753-73.954-317.649-135.993-56.966-47.187-99.637-94.949-121.046-120.595z"  horiz-adv-x="1039" />

    
    <glyph glyph-name="fail" unicode="&#58911;" d="M860.999 731.993c-46.255 46.255-100.128 82.575-160.119 107.95-62.13 26.278-128.107 39.603-196.101 39.603-55.319 0-109.701-8.917-161.638-26.5-16.47-5.577-25.301-23.449-19.726-39.921 5.577-16.47 23.446-25.301 39.921-19.726 45.419 15.377 93.007 23.174 141.444 23.174 243.057 0 440.799-197.742 440.799-440.8 0-243.057-197.742-440.8-440.799-440.8-243.058 0-440.801 197.743-440.801 440.8 0 88.509 26.12 173.863 75.533 246.832 9.75 14.4 5.983 33.975-8.417 43.724-14.398 9.75-33.975 5.983-43.724-8.417-56.498-83.432-86.362-180.996-86.362-282.141 0-67.994 13.324-133.973 39.602-196.101 25.375-59.992 61.694-113.864 107.949-160.119 46.255-46.255 100.128-82.576 160.121-107.95 62.128-26.278 128.105-39.602 196.101-39.602s133.972 13.324 196.1 39.602c59.992 25.375 113.865 61.695 160.119 107.949s82.576 100.128 107.95 160.12c26.278 62.128 39.602 128.105 39.602 196.101s-13.324 133.972-39.602 196.1c-25.376 59.995-61.697 113.868-107.951 160.122zM324.346 466.599c12.296-12.296 28.412-18.444 44.528-18.444s32.232 6.148 44.528 18.443c24.592 24.593 24.592 64.463 0 89.056l-63.514 63.513c-24.592 24.592-64.462 24.592-89.056 0-24.592-24.591-24.592-64.462 0-89.055l63.514-63.513zM305.361 116.002c16.116 0 32.232 6.149 44.528 18.444l153.417 153.418 155.321-154.536c12.286-12.225 28.352-18.332 44.414-18.332 16.169 0 32.336 6.191 44.641 18.557 24.531 24.656 24.429 64.525-0.225 89.056l-155.096 154.309 154.201 154.201c24.593 24.592 24.593 64.462 0 89.056-24.592 24.592-64.461 24.592-89.056 0l-396.67-396.675c-24.593-24.593-24.593-64.463 0-89.056 12.295-12.295 28.411-18.443 44.527-18.443z"  horiz-adv-x="1024" />

    
    <glyph glyph-name="homecontact" unicode="&#58917;" d="M894.555 832.104h-766.763c-70.577 0-127.792-57.217-127.792-127.795v-575.071c0-70.578 57.215-127.793 127.793-127.793h61.081v-129.445l258.122 129.445h447.559c70.579 0 127.794 57.215 127.794 127.793v575.072c0 70.578-57.216 127.793-127.794 127.793zM633.338 193.135h-436.018v63.896h436.019v-63.896zM830.656 384.825h-638.966v63.896h638.967v-63.896zM830.656 575.791h-638.966v63.896h638.967v-63.896z"  horiz-adv-x="1037" />

    
    <glyph glyph-name="home" unicode="&#58882;" d="M671.946 320.829c-3.925 0-7.911 0.728-11.781 2.262l-148.2 58.774-148.538-58.782c-16.422-6.5-35.005 1.546-41.504 17.969-6.5 16.423 1.545 35.005 17.968 41.504l160.318 63.445c3.486 1.42 7.531 2.244 11.769 2.244 4.245 0 8.297-0.827 12.003-2.329l159.763-63.368c16.417-6.511 24.45-25.099 17.937-41.518-4.975-12.55-17.010-20.2-29.735-20.2zM927.637 320.839h-127.769c-17.662 0-31.98 14.318-31.98 31.98s14.318 31.98 31.98 31.98h127.77c17.366 0 31.543 13.914 31.97 31.178-0.8 2.896-7.877 22.417-62.257 74.070-34.384 32.658-81.384 72.354-139.696 117.985-92.807 72.625-184.984 137.254-198.449 146.65-8.325 4.158-29.52 12.915-47.229 12.915-17.892 0-38.97-8.9-46.868-12.953-11.832-7.744-109.115-71.748-205.064-145.070-192.476-147.084-195.333-190.731-195.353-192.734v-0.060c0-17.633 14.347-31.98 31.98-31.98h126.052c17.662 0 31.98-14.318 31.98-31.98s-14.318-31.98-31.98-31.98h-126.051c-47.545 0-87.124 34.763-94.652 80.207-0.828 2.773-1.306 5.96-1.308 9.258l0 0.088v0.107l0.020 6.51c0.102 34.972 25.286 94.264 220.75 243.595 103.772 79.279 208.912 147.761 209.962 148.445 0.682 0.442 1.38 0.858 2.092 1.248 3.98 2.176 40.002 21.258 78.443 21.258 38.338 0 74.906-19.099 78.95-21.276 4.019-2.194 7.392-5.069 10.081-8.505-5.971 5.898 98.79-66.896 202.235-148.215 61.19-48.1 110.117-89.86 145.424-124.117 52.313-50.76 74.715-84.347 74.907-112.307l0.020-2.71v-0.16l0.004-0.542h-0.006c-0.017-1.619-0.138-3.193-0.356-4.736-3.652-48.988-45.14-88.15-95.602-88.15zM863.937-127.299h-704.077c-52.902 0-95.941 47.412-95.941 105.69v405.639h63.96v-405.64c0-22.62 14.646-41.728 31.98-41.728h704.076c17.335 0 31.98 19.109 31.98 41.728v405.64h63.962v-405.64c0-58.277-43.040-105.689-95.942-105.689zM672.733-126.983h-319.804c-17.662 0-31.98 14.318-31.98 31.98v159.893c0 105.809 86.078 191.892 191.882 191.892 105.805 0 191.882-86.083 191.882-191.892v-159.891c0-17.663-14.319-31.98-31.98-31.98zM384.909-63.023h255.843v127.913c0 70.542-57.385 127.932-127.921 127.932s-127.922-57.39-127.922-127.932v-127.911z"  horiz-adv-x="1040" />

    
    <glyph glyph-name="homeintroduce" unicode="&#58918;" d="M504.777 879.536h-0.001c-278.224 0-503.769-225.545-503.769-503.767v-0.001c0-278.225 225.545-503.768 503.769-503.768 278.224 0 503.769 225.545 503.769 503.768 0 278.225-225.546 503.769-503.769 503.769zM503.767 628.66c34.779 0 62.972-28.193 62.972-62.971s-28.193-62.971-62.971-62.971-62.971 28.192-62.971 62.971 28.193 62.971 62.971 62.971zM629.709 124.891h-251.885v62.972h62.972v191.746h-62.971v62.992h188.913v-254.739h62.971v-62.97z"  horiz-adv-x="1024" />

    
    <glyph glyph-name="homeorder" unicode="&#58916;" d="M637.188 705.542c0-85.856 55.72-141.331 141.955-141.331h172.573v64.384c0 0 0 0.001 0 0.002 0 8.663-3.501 16.508-9.166 22.198l-218.486 219.493c-5.699 5.725-13.586 9.268-22.301 9.268l-64.575-0v-174.013zM779.143 532.746c-103.728 0-173.42 69.441-173.42 172.796v174.014h-376.689c-86.75 0-157.326-70.576-157.326-157.326v-692.905c0-86.749 70.576-157.326 157.326-157.326h565.356c86.749 0 157.326 70.577 157.326 157.326v503.422h-172.573zM259.99 501.832h313.345v-62.93h-313.345v62.93zM763.432 61.922h-503.442v62.929h503.441v-62.929zM763.432 250.197h-503.442v62.93h503.441v-62.93z"  horiz-adv-x="1024" />

    
    <glyph glyph-name="homepicture" unicode="&#58920;" d="M576.087 512.752c0-0 0-0 0-0 0-35.324 28.636-63.961 63.961-63.961 35.324 0 63.961 28.636 63.961 63.961 0 0 0 0 0 0 0 0 0 0 0 0 0 35.324-28.636 63.961-63.961 63.961-35.324 0-63.961-28.636-63.961-63.961 0-0 0-0 0-0zM895.036 578.615c0 70.65-57.273 127.922-127.922 127.922h-639.193c-70.649 0-127.921-57.272-127.921-127.922v-511.685c0-7.727 0.686-15.295 1.999-22.644 3.898-21.349 12.631-40.184 25.036-56.003 3.106-6.593 18.897-21.885 37.646-32.589-11.692 5.257 7.784-6.313 29.574-12.289-11.257 1.77 10.486-4.397 33.667-4.397h639.192c23.182 0 44.923 6.167 63.675 16.948 17.908 10.421 32.628 24.454 43.538 41.196-6.884-12.5 5.902 5.927 13.418 26.865-6.504-17.498 0.8-1.354 4.541 16.111-3.417-18.12 2.75 3.622 2.75 26.804v511.684zM831.076 146.665l-191.19 212.388s-27.704 27.63-65.227 27.63c-37.521 0-62.68-27.63-62.68-27.63l-50.658-66.206-109.387 158.58s-24.476 31.85-64.382 31.85-64.812-31.591-64.812-31.591l-158.78-159.267v286.196c0 35.269 28.693 63.961 63.961 63.961h639.193c35.269 0 63.961-28.692 63.961-63.96v-431.95zM863.396 832.297h-641c-52.903 0-95.942-43.040-95.942-95.941h63.96c0 17.634 14.348 31.98 31.981 31.98h641c52.902 0 95.941-43.039 95.941-95.94v-511.694c0-17.633-14.346-31.98-31.98-31.98v-63.96c52.902 0 95.941 43.038 95.941 95.94v511.693c0.001 88.17-71.73 159.902-159.9 159.902z"  horiz-adv-x="1039" />

    
    <glyph glyph-name="increase" unicode="&#58904;" d="M831.51 448.275h-255.843v255.843c0 35.324-28.636 63.96-63.96 63.96-35.325 0-63.961-28.636-63.961-63.96v-255.843h-255.843c-35.325 0-63.961-28.636-63.961-63.96 0-35.325 28.636-63.962 63.96-63.962h255.844v-255.842c0-35.325 28.636-63.961 63.96-63.961 35.325 0 63.961 28.636 63.961 63.96v255.845h255.843c35.324 0 63.96 28.637 63.96 63.961 0 35.325-28.636 63.96-63.96 63.96z"  horiz-adv-x="1024" />

    
    <glyph glyph-name="hotel" unicode="&#58902;" d="M958.97 1.712v478.543c0 52.902-43.040 95.941-95.941 95.941h-159.979v159.902c0 52.902-43.039 95.941-95.94 95.941h-447.725c-52.902 0-95.941-43.039-95.941-95.94v-734.387h-62.421v-63.96h191v63.96h-64.617v734.386c0 17.634 14.346 31.98 31.98 31.98h447.725c17.634 0 31.98-14.346 31.98-31.98v-734.386h-63.327v-63.96h193.406v63.96h-66.117v510.524h159.977c17.633 0 31.98-14.347 31.98-31.98v-478.546h-62.396v-63.96h191.78v63.96h-65.424zM256.492 1.712h254.803v-63.96h-254.803v63.96zM191.509 640.002h127.921v-127.922h-127.92v127.922zM447.791 640.002h127.921v-127.922h-127.921v127.922zM191.509 447.96h127.921v-127.922h-127.92v127.923zM447.791 447.96h127.921v-127.922h-127.921v127.923zM768.653 447.96h63.961v-127.922h-63.96v127.923zM768.653 256.601h63.961v-127.921h-63.96v127.922zM191.509 256.601h127.921v-127.921h-127.92v127.922zM447.791 256.601h127.921v-127.921h-127.921v127.922z"  horiz-adv-x="1040" />

    
    <glyph glyph-name="message" unicode="&#58885;" d="M895.45 704.118c35.267 0 63.96-28.693 63.96-63.96v-511.688c0-35.268-28.693-63.96-63.96-63.96h-767.53c-35.268 0-63.96 28.692-63.96 63.96v511.687c0 35.268 28.692 63.96 63.96 63.96h767.53M895.45 768.079h-767.529c-70.649-0-127.921-57.273-127.921-127.922v-511.686c0-70.649 57.272-127.921 127.921-127.921h767.529c70.65 0 127.922 57.272 127.922 127.921v511.686c0 70.65-57.273 127.922-127.922 127.922zM511.686 352.335c-4.779 0-9.313 1.048-13.384 2.927l-352.21 159.408c-16.091 7.283-23.232 26.23-15.949 42.321 7.283 16.090 26.23 23.231 42.32 15.95l339.207-153.518 338.432 153.507c16.086 7.295 35.040 0.17 42.335-15.915 7.296-16.084 0.17-35.039-15.915-42.334l-351.626-159.49c-3.879-1.804-8.42-2.856-13.207-2.856-0.001 0-0.002 0-0.003 0z"  horiz-adv-x="1039" />

    
    <glyph glyph-name="nocheck" unicode="&#58900;" d="M504.365-127.38c-67.954 0-133.892 13.315-195.983 39.577-59.956 25.36-113.797 61.657-160.024 107.885-46.228 46.227-82.525 100.067-107.885 160.023-26.262 62.091-39.578 128.028-39.578 195.983s13.317 133.892 39.58 195.982c25.36 59.956 61.656 113.797 107.884 160.023 46.227 46.228 100.067 82.525 160.024 107.885 62.090 26.262 128.028 39.578 195.983 39.578s133.89-13.316 195.98-39.577c59.957-25.36 113.796-61.657 160.024-107.885 46.228-46.227 82.525-100.067 107.884-160.023 26.263-62.091 39.579-128.028 39.579-195.983s-13.316-133.892-39.579-195.983c-25.36-59.956-61.656-113.796-107.884-160.023s-100.067-82.525-160.023-107.885c-62.091-26.262-128.028-39.578-195.982-39.578zM504.365 816.622c-242.912 0-440.535-197.622-440.535-440.535 0-242.911 197.623-440.534 440.535-440.534 242.911 0 440.534 197.623 440.534 440.534 0 242.912-197.623 440.535-440.534 440.535z"  horiz-adv-x="1024" />

    
    <glyph glyph-name="nocheckb" unicode="&#58886;" d="M831.51 768.079c35.268 0 63.96-28.693 63.96-63.961v-639.606c0-35.269-28.692-63.961-63.96-63.961h-639.606c-35.269 0-63.961 28.692-63.961 63.96v639.608c0 35.268 28.692 63.96 63.96 63.96h639.607M831.51 832.040h-639.606c-70.65 0-127.922-57.272-127.922-127.921v-639.606c0-70.65 57.273-127.922 127.922-127.922h639.606c70.649 0 127.921 57.272 127.921 127.922v639.605c0 70.649-57.272 127.921-127.921 127.921z"  horiz-adv-x="1024" />

    
    <glyph glyph-name="order" unicode="&#58883;" d="M794.389-127.999h-565.354c-86.75 0-157.326 70.577-157.326 157.326v692.904c0 86.749 70.576 157.326 157.326 157.326h472.728c0 0 0 0 0 0 8.714 0 16.601-3.543 22.299-9.267l218.489-219.496c5.664-5.689 9.165-13.535 9.165-22.199l-0-599.269c-0.001-86.749-70.578-157.326-157.326-157.326zM229.035 816.625c-52.050 0-94.395-42.346-94.395-94.394v-692.904c0-52.049 42.346-94.395 94.395-94.395h565.354c52.050 0 94.395 42.346 94.395 94.395v586.279l-200.097 201.019h-459.652zM824.448 439.316h-125.853c-55.21 0-102.523 18.109-136.821 52.372-34.235 34.197-52.331 81.279-52.331 136.156v126.859h62.93v-126.859c0-77.471 48.365-125.598 126.222-125.598h125.853v-62.93zM259.991 313.129h503.439v-62.93h-503.439v62.93zM259.991 124.854h503.439v-62.929h-503.439v62.929z"  horiz-adv-x="1024" />

    
    <glyph glyph-name="password" unicode="&#58884;" d="M882.097 564.249c34.701 0 62.932-28.231 62.932-62.932v-503.456c0-34.7-28.23-62.932-62.932-62.932h-755.181c-34.701 0-62.933 28.231-62.933 62.932v503.457c0 34.7 28.231 62.932 62.933 62.932h755.181M882.097 627.182h-755.181c-69.513-0.001-125.864-56.352-125.864-125.863v-503.456c0-69.512 56.351-125.863 125.864-125.863h755.181c69.512 0 125.864 56.351 125.864 125.863v503.456c0 69.512-56.352 125.863-125.864 125.863zM630.081 816.62c33.619 0 65.227-13.093 88.999-36.865s36.865-55.379 36.865-88.999v-62.932h-503.456v62.931c0 33.619 13.093 65.227 36.865 88.999s55.379 36.865 88.998 36.865h251.728M630.081 879.55h-251.727c-104.269 0-188.796-84.527-188.796-188.796v-125.864h629.318v125.865c0 104.269-84.526 188.796-188.795 188.796zM504.218 123.982c-86.751 0-157.329 70.578-157.329 157.329 0 27.241 7.083 54.097 20.482 77.666 8.59 15.108 27.798 20.392 42.906 11.803 15.107-8.588 20.392-27.797 11.803-42.905-8.020-14.107-12.259-30.207-12.259-46.564 0-52.051 42.347-94.398 94.398-94.398s94.398 42.347 94.398 94.398-42.347 94.398-94.398 94.398c-17.378 0-31.465 14.088-31.465 31.466s14.088 31.465 31.465 31.465c86.752 0 157.33-70.578 157.33-157.329s-70.578-157.329-157.33-157.329zM502.328 60.813c-34.756 0-62.932 28.175-62.932 62.932v56.883h125.856v-56.891c0-34.752-28.172-62.924-62.924-62.924z"  horiz-adv-x="1024" />

    
    <glyph glyph-name="phone" unicode="&#58913;" d="M449.536 691.227h252.098v-62.972h-252.098v62.973zM323.803 691.227h62.931v-62.972h-62.931v62.973zM732.112 879.545h-440.8c-86.807 0-157.43-70.623-157.43-157.43v-692.686c0-86.807 70.623-157.429 157.43-157.429h440.801c86.807 0 157.429 70.623 157.429 157.429v692.687c-0.001 86.807-70.623 157.429-157.43 157.429zM291.312 816.573h440.801c52.083 0 94.457-42.374 94.457-94.457v-534.63h-629.716v534.63c0 52.083 42.374 94.457 94.458 94.457zM732.112-65.029h-440.8c-52.084 0-94.458 42.374-94.458 94.458v95.084h629.717v-95.084c0-52.084-42.374-94.458-94.458-94.458z"  horiz-adv-x="1024" />

    
    <glyph glyph-name="reduce" unicode="&#58903;" d="M895.47 384.315c0-35.324-28.636-63.96-63.96-63.96h-639.607c-35.325 0-63.961 28.636-63.961 63.96 0 35.325 28.636 63.96 63.96 63.96h639.608c35.325 0 63.962-28.635 63.962-63.96z"  horiz-adv-x="1024" />

    
    <glyph glyph-name="homehotel" unicode="&#58906;" d="M959.996 576.45h-191.882v191.628c0 35.324-28.636 63.96-63.96 63.96h-640.194c-35.324 0.002-63.96-28.635-63.96-63.958v-831.49l1023.957 0.573v575.325c0 35.325-28.636 63.961-63.96 63.961zM319.803 64.511h-191.883v127.922h191.883v-127.921zM319.803 256.393h-191.883v191.88h191.883v-191.88zM319.803 511.662h-191.883v191.883h191.883v-191.882zM639.425 64.511h-191.882v127.922h191.882v-127.921zM639.425 256.393h-191.882v191.88h191.882v-191.88zM639.425 511.662h-191.882v191.883h191.882v-191.882zM959.996 64.511h-127.921v127.922h127.921v-127.921zM959.996 256.393h-127.921v191.88h127.921v-191.88z"  horiz-adv-x="1040" />

    
    <glyph glyph-name="routine_fail" unicode="&#58915;" d="M968.256 572.070c-25.36 59.955-61.657 113.796-107.885 160.022-46.227 46.228-100.067 82.526-160.023 107.886-62.090 26.26-128.028 39.577-195.982 39.577-55.284 0-109.634-8.911-161.54-26.484-16.46-5.573-25.287-23.435-19.715-39.896 5.573-16.462 23.432-25.287 39.897-19.715 45.391 15.368 92.95 23.16 141.358 23.16 242.911 0 440.534-197.623 440.534-440.535 0-242.91-197.623-440.533-440.534-440.533-242.912 0-440.534 197.623-440.534 440.533 0 88.456 26.103 173.758 75.487 246.684 9.744 14.39 5.979 33.955-8.412 43.698-14.39 9.745-33.954 5.978-43.698-8.411-56.465-83.383-86.309-180.888-86.309-281.972 0-67.953 13.315-133.891 39.577-195.982 25.36-59.956 61.657-113.796 107.885-160.023 46.227-46.228 100.067-82.526 160.024-107.885 62.090-26.262 128.028-39.578 195.982-39.578s133.892 13.316 195.983 39.578c59.956 25.36 113.796 61.657 160.023 107.885s82.525 100.067 107.885 160.023c26.262 62.090 39.578 128.028 39.578 195.982s-13.318 133.895-39.58 195.985zM397.645 437.755c6.145-6.144 14.198-9.216 22.25-9.216s16.107 3.072 22.252 9.216c12.289 12.29 12.289 32.213 0 44.501l-133.959 133.958c-12.288 12.288-32.211 12.288-44.5 0-12.29-12.288-12.29-32.212 0-44.5l133.957-133.958zM285.939 126.795c8.053 0 16.106 3.072 22.25 9.216l195.65 195.65 197.616-196.708c6.14-6.112 14.168-9.166 22.2-9.166 8.075 0 16.152 3.091 22.3 9.267 12.261 12.317 12.215 32.241-0.102 44.501l-197.513 196.608 196.557 196.558c12.288 12.288 12.288 32.212 0 44.5-12.289 12.288-32.212 12.288-44.5 0l-436.71-436.71c-12.29-12.288-12.29-32.211 0-44.5 6.145-6.145 14.198-9.216 22.25-9.216z"  horiz-adv-x="1024" />

    
    <glyph glyph-name="retract" unicode="&#58894;" d="M0 127.195h1023.957l-512.315 512.315z"  horiz-adv-x="1040" />

    
    <glyph glyph-name="routine_success" unicode="&#58910;" d="M442.356 125.553c-8.695 0-16.567 3.525-22.265 9.223l-223.629 223.63c-12.296 12.295-12.296 32.231 0 44.527 12.295 12.295 32.232 12.295 44.528 0l201.366-201.366 325.562 325.563c12.295 12.295 32.231 12.295 44.527 0 12.295-12.296 12.295-32.233 0-44.528l-347.825-347.826c-5.698-5.698-13.57-9.222-22.264-9.222-0 0-0 0-0 0zM504.782-127.998c-67.996 0-133.974 13.324-196.102 39.602-59.992 25.375-113.866 61.695-160.121 107.95-46.255 46.255-82.575 100.128-107.949 160.12-26.28 62.128-39.603 128.105-39.603 196.101 0 101.146 29.864 198.709 86.363 282.143 9.75 14.399 29.329 18.166 43.725 8.417 14.399-9.75 18.165-29.327 8.417-43.725-49.415-72.97-75.533-158.324-75.533-246.833 0-243.057 197.742-440.8 440.802-440.8 243.057 0 440.8 197.743 440.8 440.8 0 243.059-197.743 440.802-440.801 440.802-48.437 0-96.025-7.797-141.444-23.174-16.474-5.576-34.343 3.255-39.921 19.726-5.576 16.471 3.256 34.343 19.726 39.921 51.937 17.583 106.32 26.5 161.638 26.5 67.995 0 133.973-13.325 196.101-39.603 59.993-25.375 113.865-61.694 160.12-107.949 46.256-46.256 82.576-100.128 107.95-160.121 26.278-62.128 39.602-128.105 39.602-196.101s-13.324-133.973-39.602-196.101c-25.375-59.992-61.694-113.865-107.949-160.12s-100.128-82.576-160.121-107.949c-62.128-26.281-128.105-39.605-196.1-39.605z"  horiz-adv-x="1024" />

    
    <glyph glyph-name="selected" unicode="&#58909;" d="M426.099 64.648c-0.001-0-0.002-0-0.004-0-17.661 0-33.651 7.159-45.224 18.733l-232.75 232.75c-24.978 24.978-24.978 65.477 0 90.455s65.476 24.978 90.455 0l187.466-187.466 359.763 360.67c24.947 25.009 65.444 25.062 90.455 0.114 25.009-24.946 25.060-65.445 0.114-90.454l-404.991-406.012c-11.576-11.604-27.58-18.784-45.262-18.79l-0.022 0z"  horiz-adv-x="1024" />

    
    <glyph glyph-name="success" unicode="&#58912;" d="M1008.55 375.774c0 67.994-13.324 133.972-39.602 196.1-25.375 59.993-61.694 113.866-107.949 160.12-46.255 46.254-100.128 82.574-160.119 107.949-62.13 26.278-128.107 39.603-196.101 39.603-55.319 0-109.701-8.917-161.638-26.5-16.47-5.577-25.301-23.449-19.726-39.921 5.577-16.47 23.446-25.301 39.921-19.726 45.419 15.377 93.007 23.174 141.444 23.174 243.057 0 440.799-197.742 440.799-440.8 0-243.057-197.742-440.8-440.799-440.8-243.058 0-440.801 197.743-440.801 440.8 0 88.509 26.12 173.863 75.533 246.832 9.75 14.4 5.983 33.975-8.417 43.724-14.398 9.75-33.975 5.983-43.724-8.417-56.498-83.432-86.362-180.996-86.362-282.141 0-67.994 13.324-133.973 39.602-196.101 25.375-59.992 61.694-113.864 107.949-160.119 46.255-46.255 100.128-82.576 160.121-107.95 62.128-26.278 128.105-39.602 196.101-39.602s133.972 13.324 196.1 39.602c59.992 25.375 113.865 61.695 160.119 107.949s82.576 100.128 107.95 160.12c26.276 62.131 39.6 128.108 39.6 196.104zM204.472 335.973l191.841-191.841c12.296-12.295 28.412-18.444 44.528-18.444s32.231 6.148 44.527 18.443l317.946 317.946c24.591 24.592 24.591 64.462 0 89.056-24.593 24.591-64.462 24.591-89.056 0l-273.418-273.42-147.314 147.314c-24.592 24.593-64.462 24.593-89.056 0-24.591-24.591-24.591-64.462 0.002-89.054z"  horiz-adv-x="1024" />

    
    <glyph glyph-name="telephone" unicode="&#58881;" d="M906.636 481.914c-13.45-0.001-25.966 8.554-30.378 22.031-51.739 158.005-198.3 264.166-364.7 264.166-116.711 0-225.687-52.197-298.983-143.207-11.076-13.752-31.203-15.922-44.955-4.846-13.753 11.075-15.922 31.202-4.847 44.955 41.034 50.949 93.687 93.032 152.265 121.7 61.48 30.088 127.6 45.344 196.52 45.344 96.246 0 187.963-30.088 265.234-87.012 67.312-49.952 119.464-116.781 150.624-194.308-26.176 58.984-4.882 17.372 9.613-26.892 5.495-16.78-3.655-34.839-20.436-40.334-2.976-1.011-6.405-1.595-9.97-1.596zM116.475 481.91c-3.297 0-6.65 0.513-9.955 1.596-16.782 5.495-25.931 23.552-20.435 40.334 16.626 49.949 39.877 93.286 69.225 131.718-46.285-74.332-27.41-67.018-11.255-74.15 16.154-7.132 23.466-26.008 16.335-42.162-16.222-35.783-27.327-77.312-31.106-120.939 13.156 72.157 0.64 63.603-12.81 63.603zM428.797-55.789c-66.99 12.576-131.283 40.969-185.93 82.109-53.8 40.503-98.487 93.483-129.232 153.212l56.854 29.265c53.89-104.689 154.861-180.106 270.103-201.738l-11.797-62.848zM160.626 162.193c-44.069 0-85.052 20.89-115.398 58.821-28.672 35.842-44.463 83.078-44.463 133.012s15.791 97.171 44.464 133.012c30.346 37.933 71.328 58.822 115.398 58.822 47.913 0 92.826-25.278 123.223-69.353l5.673-8.225-0.020-9.991c-0.071-36.347-0.070-144.262-0.068-196.123v-22.541l-5.667-8.203c-30.395-43.999-75.278-69.233-123.141-69.233zM160.626 481.918c-24.251 0-47.5-12.367-65.465-34.824-19.637-24.546-30.452-57.598-30.452-93.066s10.815-68.52 30.452-93.067c17.966-22.454 41.215-34.822 65.465-34.822 23.904 0 47.13 12.307 64.862 34.078v1.954c-0.001 47.51-0.002 142.052 0.052 185.604-17.739 21.815-40.982 34.143-64.914 34.143zM864.184 162.192c-47.863 0-92.746 25.234-123.14 69.234l-5.666 8.203v22.047c0 51.984 0.003 160.15-0.069 196.617l-0.020 9.99 5.672 8.225c30.396 44.075 75.31 69.353 123.223 69.353 44.070 0 85.053-20.889 115.398-58.822 28.673-35.841 44.464-83.079 44.464-133.012s-15.792-97.17-44.464-133.013c-30.345-37.932-71.329-58.82-115.398-58.82zM799.322 260.216c17.732-21.772 40.957-34.078 64.862-34.078 24.252 0 47.501 12.367 65.465 34.822 19.637 24.547 30.452 57.599 30.452 93.067s-10.814 68.52-30.452 93.067c-17.965 22.455-41.213 34.823-65.465 34.823-23.934 0-47.175-12.329-64.914-34.143 0.054-43.664 0.053-138.461 0.052-186.098v-1.459zM511.557-128c-52.889 0-95.917 43.029-95.917 95.917s43.028 95.917 95.916 95.917 95.918-43.028 95.918-95.916-43.029-95.918-95.917-95.918zM511.557-0.11c-17.63 0-31.972-14.343-31.972-31.972s14.342-31.973 31.972-31.973 31.972 14.343 31.972 31.972-14.343 31.972-31.972 31.972z"  horiz-adv-x="1039" />

    
    <glyph glyph-name="warning" unicode="&#58905;" d="M1008.55 375.774c0 67.994-13.324 133.972-39.602 196.1-25.375 59.993-61.694 113.866-107.949 160.12-46.255 46.254-100.128 82.574-160.119 107.949-62.13 26.278-128.107 39.603-196.101 39.603-55.319 0-109.701-8.917-161.638-26.5-16.47-5.577-25.301-23.449-19.726-39.921 5.577-16.47 23.446-25.301 39.921-19.726 45.419 15.377 93.007 23.174 141.444 23.174 243.057 0 440.799-197.742 440.799-440.8 0-243.057-197.742-440.8-440.799-440.8-243.058 0-440.801 197.743-440.801 440.8 0 88.509 26.12 173.863 75.533 246.832 9.75 14.4 5.983 33.975-8.417 43.724-14.398 9.75-33.975 5.983-43.724-8.417-56.498-83.432-86.362-180.996-86.362-282.141 0-67.994 13.324-133.973 39.602-196.101 25.375-59.992 61.694-113.864 107.949-160.119 46.255-46.255 100.128-82.576 160.121-107.95 62.128-26.278 128.105-39.602 196.101-39.602s133.972 13.324 196.1 39.602c59.992 25.375 113.865 61.695 160.119 107.949s82.576 100.128 107.95 160.12c26.276 62.131 39.6 128.108 39.6 196.104zM503.772 691.996c-34.779 0-62.972-28.193-62.972-62.972v-315.572c0-34.778 28.193-62.971 62.972-62.971 34.778 0 62.971 28.193 62.971 62.971v315.572c0 34.779-28.194 62.972-62.971 62.972zM503.771 187.921c-34.779 0-62.972-28.193-62.972-62.972 0-34.778 28.193-62.971 62.972-62.971 34.778 0 62.971 28.193 62.971 62.971 0 34.779-28.193 62.972-62.971 62.972z"  horiz-adv-x="1024" />

    
    <glyph glyph-name="tips" unicode="&#58907;" d="M925.599 558.432c-21.742 53.308-52.872 101.19-92.528 142.315-39.695 41.167-85.936 73.493-137.438 96.084-53.37 23.412-110.060 35.28-168.495 35.28h-30.862c-51.333 0-101.575-9.227-149.33-27.429-2.229-0.85-4.45-1.718-6.662-2.604-8.234-3.301-12.235-12.651-8.933-20.886 3.3-8.234 12.654-12.233 20.885-8.933 2.045 0.82 4.097 1.62 6.154 2.407 44.086 16.801 90.477 25.321 137.886 25.321h30.862c220.693 0 400.24-186.47 400.24-415.673 0-229.202-179.547-415.67-400.24-415.67h-30.862c-220.694 0-400.24 186.469-400.24 415.671 0 83.64 23.812 164.273 68.862 233.185 4.854 7.425 2.77 17.38-4.655 22.234-7.427 4.855-17.38 2.772-22.235-4.655-48.475-74.152-74.098-160.865-74.098-250.765 0-60.374 11.406-118.955 33.904-174.116 21.742-53.309 52.872-101.19 92.527-142.315 39.695-41.166 85.935-73.494 137.437-96.084 53.37-23.41 110.061-35.282 168.497-35.282h30.862c58.435 0 115.126 11.872 168.496 35.282 51.502 22.59 97.743 54.919 137.438 96.084 39.656 41.125 70.786 89.006 92.528 142.316 22.497 55.16 33.905 113.742 33.905 174.116s-11.407 118.955-33.904 174.117zM447.746 576.196c0-0 0-0 0-0 0-35.324 28.636-63.96 63.961-63.96 35.324 0 63.961 28.636 63.961 63.96 0 0 0 0 0 0 0 35.324-28.636 63.961-63.961 63.961-35.324 0-63.96-28.636-63.96-63.96 0-0 0-0 0-0zM383.785 190.526v-63.96h255.843v63.96h-63.961v257.606l-191.882 0.084v-63.985h63.96v-193.703z"  horiz-adv-x="1024" />

    
    <glyph glyph-name="time" unicode="&#58889;" d="M511.707-31.43c-56.11 0-110.56 10.997-161.837 32.684-49.51 20.942-93.968 50.913-132.14 89.085-38.17 38.171-68.142 82.629-89.083 132.14-21.688 51.274-32.684 105.723-32.684 161.835 0 99.756 35.865 196.22 100.99 271.625 11.546 13.367 31.74 14.844 45.108 3.299 13.366-11.545 14.844-31.74 3.3-45.107-55.095-63.79-85.437-145.406-85.437-229.816 0-193.974 157.81-351.784 351.783-351.784 193.975 0 351.784 157.81 351.784 351.783 0 193.975-157.809 351.784-351.783 351.784-33.44 0-66.511-4.678-98.293-13.908-16.962-4.925-34.705 4.833-39.63 21.795-4.925 16.961 4.833 34.704 21.794 39.63 37.58 10.91 76.65 16.444 116.127 16.444 56.111 0 110.561-10.997 161.836-32.684 49.51-20.941 93.97-50.914 132.14-89.084 38.171-38.172 68.144-82.63 89.085-132.14 21.688-51.276 32.684-105.725 32.684-161.836 0-56.11-10.996-110.56-32.684-161.837-20.941-49.51-50.914-93.968-89.084-132.14-38.172-38.17-82.63-68.142-132.14-89.084-51.276-21.687-105.725-32.684-161.836-32.684zM732.272 320.612h-252.288c-17.662 0.001-31.98 14.32-31.98 31.982 0 0.013 0 0.025 0 0.038l0.293 255.201c0.020 17.65 14.336 31.943 31.98 31.943h0.037c17.663-0.020 31.963-14.355 31.944-32.017l-0.258-223.186h220.27c17.663 0 31.981-14.318 31.981-31.98 0-17.663-14.319-31.98-31.98-31.98z"  horiz-adv-x="1024" />

    
    <glyph glyph-name="homeuser" unicode="&#58919;" d="M686.198 182.796c-6.803 8.9-12.098 17.8-14.628 26.1-3.6 11.803-3.955 19.777-2.666 25.158 32.525 21.944 59.544 49.403 80.336 81.291l-64.621-70.424s-0.175 0.028-0.484 0.057c52.718 40.482 90.795 99.072 104.917 166.48 50.626 2.444 100.275 53.313 100.275 103.958 0 51.905-42.078 83.908-93.983 83.908-0.086 0-0.17-0.006-0.254-0.007v14.113c0 4.874-0.124 9.702-0.367 14.483h62.172c17.39 0 31.487 14.097 31.487 31.486 0 17.39-14.097 31.487-31.487 31.487h-69.524c-0.543 103.872-84.905 187.91-188.906 187.91h-70.989c-4.77 0.244-10.356 0.383-15.975 0.383l0.21-0c-31.496 0-61.788 1.015-90.091-0.39-12.789-0.034-25.255-1.328-37.308-3.763-34.73-5.428-66.671-18.562-92.121-48.062-36.069-34.212-58.641-82.507-58.921-136.080h-67.364c-17.39 0-31.487-14.096-31.487-31.486s14.097-31.486 31.487-31.486h65.75c-0.71-9.233-1.309-18.806-1.795-28.726-0.717 0.087-1.548 0.136-2.391 0.136-0.004 0-0.009-0-0.013-0-51.904 0-93.982-32.003-93.982-83.908 0-50.854 50.061-101.937 100.903-103.987 14.134-67.427 52.237-126.030 104.986-166.508h-1.144s0.598-0.090 1.576-0.332c4.802-3.67 9.72-7.193 14.756-10.556 2.632-5.409 2.624-13.4-4.094-25.135-4.476-7.819-12.18-17.578-21.23-27.834-132.014-29.352-251.931-153.292-251.931-244.986 0-71.461 80.394-63.456 137.407-63.456h611.973c59.628 0 119.112 0 119.112 65.076 0 95.12-124.894 219.596-259.591 245.1zM638.771-60.864l-125.931 96.617-125.932-96.619s-40.3 30.175-40.3 96.67 40.3 92.522 40.3 92.522l125.932-91.819 125.932 91.82s40.3-26.028 40.3-92.523-40.3-96.67-40.3-96.67z"  horiz-adv-x="1024" />

    
    <glyph glyph-name="open" unicode="&#58895;" d="M0 639.51h1023.957l-512.315-512.315z"  horiz-adv-x="1040" />

    
    <glyph glyph-name="all_new_reduce_icon" unicode="&#58945;" d="M0 493.714286h1024v-219.428572H0v219.428572z"  horiz-adv-x="1024" />

    
    <glyph glyph-name="all_new_increase_ico" unicode="&#58946;" d="M1024 274.285714H621.714286v-402.285714h-219.428572V274.285714H0v219.428572h402.285714V896h219.428572v-402.285714h402.285714v-219.428572z"  horiz-adv-x="1024" />

    
    <glyph glyph-name="address" unicode="&#58890;" d="M965.752-97.551h-903.529s-32.136 28.1 1.897 62.133c52.284 52.284 178.808 148.721 178.808 148.721l240.941-150.588h60.235l240.941 150.588s127.759-97.641 180.706-150.588c22.016-22.076 0-60.265 0-60.265zM513.988 22.92s-361.412 301.086-361.412 493.99c0 192.904 161.822 349.304 361.412 349.304s361.412-156.371 361.412-349.304c0-192.904-361.412-493.99-361.412-493.99zM529.047 685.508c-74.851 0-135.529-60.679-135.529-135.529s60.679-135.529 135.529-135.529c74.851 0 135.529 60.679 135.529 135.529 0 74.851-60.679 135.529-135.529 135.529z"  horiz-adv-x="1024" />

    
    <glyph glyph-name="all_new_close_icon" unicode="&#58948;" d="M602.358306 383.99984L1004.491398 786.132932A63.901651 63.901651 0 1 1 914.134463 876.489867L512.001371 474.356775 109.868279 876.489867A63.901651 63.901651 0 1 1 19.511344 786.132932L421.644436 383.99984 19.511344-18.133252a63.901651 63.901651 0 1 1 90.356935-90.356935L512.001371 293.642905l402.133092-402.133092c12.492773-12.492773 28.819645-18.723184 45.178467-18.723184s32.685695 6.230411 45.178468 18.723184a63.901651 63.901651 0 0 1 0 90.356935L602.358306 383.99984z"  horiz-adv-x="1025" />

    
    <glyph glyph-name="all_triangle_left_ic" unicode="&#58949;" d="M206.466249 309.49367600000005l585.478411-420.172881c60.390256-43.501455 144.834257 0 144.834257 74.208365V804.386703c0 74.720147-84.444002 117.70982-144.834257 74.208365L206.466249 458.422187c-50.666401-36.33651-50.666401-112.08022 0-148.928511z"  horiz-adv-x="1024" />

    
    <glyph glyph-name="all_triangle_down_ic" unicode="&#58950;" d="M586.756352 78.33600000000001l420.352 585.728c43.52 60.416 0 144.896-74.24 144.896H91.652352C16.900352 808.96-26.107648 724.48 17.412352 664.064l420.352-585.728c36.352-50.688 112.128-50.688 148.992 0z"  horiz-adv-x="1024" />

    
    <glyph glyph-name="all_triangle_right_i" unicode="&#58951;" d="M817.662701 458.24186L231.425192 878.592074c-60.415743 43.519815-144.895384 0-144.895384-74.239684v-840.700428c0-74.751682 84.479641-117.7595 144.895384-74.239684l585.725511 420.350214c51.199782 36.351846 51.199782 112.127523 0.511998 148.479368z"  horiz-adv-x="1024" />

    
    <glyph glyph-name="all_triangle_up_icon" unicode="&#58952;" d="M438.272 685.568L17.92 99.32799999999997c-43.52-60.416 0-144.896 74.24-144.896h840.704c74.752 0 117.76 84.48 74.24 144.896l-419.84 586.24c-36.864 50.688-112.64 50.688-148.992 0z"  horiz-adv-x="1024" />

    
    <glyph glyph-name="qianggouye_goumaixuzhi_icon" unicode="&#58955;" d="M512 896C229.225412 896 0 666.774588 0 384s229.225412-512 512-512 512 229.225412 512 512S794.774588 896 512 896z m0-752.941176a60.235294 60.235294 0 1 0 0 120.470588 60.235294 60.235294 0 0 0 0-120.470588z m87.100235 398.878117L572.235294 353.882353h-0.662588c-3.252706-23.582118-28.521412-42.044235-59.572706-42.044235s-56.350118 18.462118-59.602824 42.044235H451.764706l-26.864941 188.054588A88.847059 88.847059 0 0 0 421.647059 564.705882a90.352941 90.352941 0 1 0 180.705882 0c0-7.920941-1.355294-15.450353-3.252706-22.768941z"  horiz-adv-x="1024" />

    
    <glyph glyph-name="telphone_icon" unicode="&#58956;" d="M512-128C229.225412-128 0 101.225412 0 384S229.225412 896 512 896s512-229.225412 512-512-229.225412-512-512-512z m227.147294 402.221176c-26.142118 21.112471-73.818353 52.766118-91.828706 59.422118-18.010353 6.656-26.744471 6.656-45.929412-1.65647-19.184941-8.342588-31.382588-19.998118-57.554823-0.542118-26.142118 19.456-69.180235 62.765176-72.071529 66.650353-2.921412 3.885176-24.997647 26.112-13.372236 46.110117 11.625412 19.998118 20.329412 34.424471 13.944471 47.224471-6.384941 12.769882-38.369882 68.397176-58.699294 86.648471-20.329412 18.281412-23.823059 19.456-43.008 13.884235 0 0-64.391529-33.882353-69.752471-72.764235-5.360941-38.881882 33.129412-121.645176 90.112-181.63953 56.952471-59.994353 158.087529-142.757647 221.455059-156.641882 63.367529-13.884235 86.016-13.884235 132.517647 43.881412 0 0 20.329412 28.340706-5.812706 49.423058z"  horiz-adv-x="1024" />

    
    <glyph glyph-name="tuiguangyuan_yindaojiantou_icon" unicode="&#58957;" d="M848.506111 182.444487l-299.482759-295.162834a53.503064 53.503064 0 0 0-74.87869 0l-299.482759 295.162834a51.647096 51.647096 0 0 0 0 73.790709H352.0028V832.00112a63.99888 63.99888 0 0 0 63.99888 63.99888h191.99664a63.99888 63.99888 0 0 0 63.99888-63.99888v-575.765924h176.508911c20.703638-20.383643 20.703638-53.439065 0-73.790709z"  horiz-adv-x="1024" />

    
    <glyph glyph-name="wodetuiguang_chanpintuiguang_icon" unicode="&#58959;" d="M928-128H128v96h800V768h96v-800a96 96 0 0 0-96-96z m-64 256a96 96 0 0 0-96-96H96a96 96 0 0 0-96 96V800a96 96 0 0 0 96 96h672a96 96 0 0 0 96-96v-672zM96 800v-672h672V800H96z m110.528-96h450.912C683.168 704 704 683.168 704 657.44v-2.912C704 628.832 683.168 608 657.44 608H206.528A46.528 46.528 0 0 0 160 654.56v2.88C160 683.168 180.832 704 206.528 704z m0-192h450.912c25.728 0 46.56-20.832 46.56-46.56v-2.912c0-25.696-20.832-46.528-46.56-46.528H206.528A46.528 46.528 0 0 0 160 462.56v2.912C160 491.168 180.832 512 206.528 512z m0-192h226.912c25.728 0 46.56-20.832 46.56-46.56v-2.912c0-25.696-20.832-46.528-46.56-46.528H206.528A46.528 46.528 0 0 0 160 270.56v2.912C160 299.168 180.832 320 206.528 320z"  horiz-adv-x="1024" />

    
    <glyph glyph-name="wepay" unicode="&#58960;" d="M422.2 395.8l-107.4 89.5-17.8-17.9 107.4-214.7L910.1 584c31.1-51.2 48.9-108.9 48.9-170.3C959 206.2 758.8 38 511.7 38c-61 0-119.1 10.3-172.1 28.9-23.6-14.8-79.8-49.9-110.8-69.3-17.2-11.1-18.9 1-18.4 12.5 3.6 32.6 9.8 87.9 13 116.6-97.1 68.9-159 171.9-159 287 0 207.5 200.3 375.8 447.3 375.8 153.6 0 289-65.1 369.6-164.1L422.2 395.8z"  horiz-adv-x="1024" />

    
    <glyph glyph-name="zhifu_yixuan_icon_px" unicode="&#58961;" d="M512 896c282.773333 0 512-229.226667 512-512S794.773333-128 512-128 0 101.226667 0 384 229.226667 896 512 896zM256 362.666667l149.333333-149.333334h42.666667l320 320-42.666667 21.333334-298.666666-234.666667-149.333334 85.333333-21.333333-42.666666z"  horiz-adv-x="1024" />

    
    <glyph glyph-name="tuiguangyuan_wancheng_icon" unicode="&#58962;" d="M512 896c282.7776 0 512-229.2224 512-512s-229.2224-512-512-512S0 101.2224 0 384 229.2224 896 512 896zM332.8 486.4l-76.8-76.8 204.8-230.4 332.8 358.4-76.8 76.8-256-256-128 128z"  horiz-adv-x="1024" />

    
    <glyph glyph-name="qianggouye_taocanneirong_icon" unicode="&#58966;" d="M740.894118 865.882353H180.705882a120.470588 120.470588 0 0 1-120.470588-120.470588v-722.82353a120.470588 120.470588 0 0 1 120.470588-120.470588h662.588236a120.470588 120.470588 0 0 1 120.470588 120.470588V588.8L740.894118 865.882353zM722.823529 112.941176H301.176471a30.117647 30.117647 0 0 0 0 60.235295h421.647058a30.117647 30.117647 0 0 0 0-60.235295z m0 210.82353H301.176471a30.117647 30.117647 0 0 0 0 60.235294h421.647058a30.117647 30.117647 0 0 0 0-60.235294z m0 210.823529H301.176471a30.117647 30.117647 0 0 0 0 60.235294h421.647058a30.117647 30.117647 0 0 0 0-60.235294z"  horiz-adv-x="1024" />

    
    <glyph glyph-name="all_fenxiang_icon1" unicode="&#58968;" d="M950.857143 237.714286v-219.428572a73.142857 73.142857 0 0 0-73.142857-73.142857H146.285714a73.142857 73.142857 0 0 0-73.142857 73.142857V749.714286a73.142857 73.142857 0 0 0 73.142857 73.142857h256V896H146.285714a146.285714 146.285714 0 0 1-146.285714-146.285714v-731.428572a146.285714 146.285714 0 0 1 146.285714-146.285714h731.428572a146.285714 146.285714 0 0 1 146.285714 146.285714v219.428572h-73.142857zM167.314286 91.428571h109.714285c0 146.285714 37.814857 257.426286 112.384 329.947429 92.672 90.075429 216.905143 92.672 232.301715 92.708571v-123.245714s8.374857-75.776 70.107428-39.204571c42.788571 25.344 201.069714 123.611429 295.606857 178.614857 14.482286 7.314286 36.571429 42.386286 0 73.142857-81.188571 49.225143-213.028571 136.484571-292.571428 182.857143-54.418286 35.328-73.142857-36.571429-73.142857-36.571429v-125.622857c-30.500571 0.146286-185.490286-5.266286-307.456-122.806857C216.758857 407.332571 167.314286 274.285714 167.314286 91.428571z"  horiz-adv-x="1024" />

    
    <glyph glyph-name="changguichanpin_icon" unicode="&#58939;" d="M796.444444 867.555556H227.555556a142.222222 142.222222 0 0 1-142.222223-142.222223v-682.666666a142.222222 142.222222 0 0 1 142.222223-142.222223h568.888888a142.222222 142.222222 0 0 1 142.222223 142.222223V725.333333a142.222222 142.222222 0 0 1-142.222223 142.222223z m56.888889-824.888889c0-31.374222-25.514667-56.888889-56.888889-56.888889H227.555556c-31.374222 0-56.888889 25.514667-56.888889 56.888889V725.333333c0 31.374222 25.514667 56.888889 56.888889 56.888889h568.888888c31.374222 0 56.888889-25.514667 56.888889-56.888889v-682.666666zM668.444444 640h-312.888888a42.666667 42.666667 0 0 1 0-85.333333h312.888888a42.666667 42.666667 0 0 1 0 85.333333zM668.444444 384h-312.888888a42.666667 42.666667 0 0 1 0-85.333333h312.888888a42.666667 42.666667 0 0 1 0 85.333333z"  horiz-adv-x="1024" />

    
    <glyph glyph-name="xianshiqianggou_icon" unicode="&#58967;" d="M502.471 782.222c-235.634 0-426.667-191.033-426.667-426.667s191.033-426.667 426.667-426.667c235.634 0 426.667 191.033 426.667 426.667s-191.033 426.667-426.667 426.667zM502.471 14.222c-188.217 0-341.333 153.116-341.333 341.333s153.116 341.333 341.333 341.333 341.333-153.116 341.333-341.333-153.116-341.333-341.333-341.333zM93.298 590.62c60.672 98.354 148.409 174.892 252.827 220.244-89.547-48.971-82.529-36.327-82.529-22.043 0 23.565-19.103 42.668-42.668 42.668-9.282 0-17.871-2.964-24.874-7.996-107.17-76.764-188.622-183.561-232.592-308.055 53.328 113.497 51.13 106.016 51.13 98.021 0-23.564 19.103-42.667 42.667-42.667 15.091 0 28.351 7.834 35.937 19.658zM1000.505 633.714c-69.315 113.046-169.591 201.175-289.036 253.785 109.282-61.956 101.105-59.294 92.306-59.294-23.58 0-42.695-19.115-42.695-42.695 0-13.604 6.362-25.721 16.274-33.54 92.21-66.913 162.051-159.393 199.61-267.015-41.79 92.079-28.318 83.937-12.944 83.937 8.201 0 15.862 2.317 22.362 6.332 12.197 7.504 20.328 20.973 20.328 36.342 0 8.188-2.308 15.837-6.309 22.332zM640 327.111h-99.556v199.111c0 0.002 0 0.004 0 0.007 0 23.564-19.103 42.667-42.667 42.667-23.564 0-42.667-19.103-42.667-42.667 0-0.002 0-0.005 0-0.007l-0-284.444h184.889c0.002-0 0.004-0 0.007-0 23.564 0 42.667 19.103 42.667 42.667 0 23.564-19.103 42.667-42.667 42.667-0.002 0-0.005-0-0.007-0z"  horiz-adv-x="1024" />

    
    <glyph glyph-name="tuiguangyuan-zujiantuandui_icon" unicode="&#58941;" d="M609.056 308.864c89.056 53.024 148.928 149.952 148.928 261.12 0 167.904-136.096 304-304 304s-304-136.096-304-304c0-107.168 55.616-201.216 139.392-255.36-163.52-61.536-280.064-217.28-280.064-402.336 0-3.36 0.416-8.32 0.512-8.32h96a69.76 69.76 0 0 0-0.512 8.32c0 185.28 150.72 335.168 336 335.168s336-149.472 336-334.752c0-3.36-0.416-8.736-0.512-8.736h96c0.064 0 0.512 4.96 0.512 8.32 0.032 179.136-108.96 331.104-264.256 396.576zM453.984 778.016c114.688 0 208-93.312 208-208s-93.312-208-208-208-208 93.312-208 208 93.312 208 208 208zM851.488 300.896a254.176 254.176 0 0 1 143.2 229.792c0 141.152-98.656 256-258.656 256l32-96c66.656-2.656 130.656-71.712 130.656-159.904 0-88.224-69.12-159.936-157.344-159.936-22.016 0-41.184-14.784-46.56-36.128-5.344-21.344 4.48-43.264 23.84-53.664 2.08-1.12 208.032-121.056 208.032-345.056h96c0 192-96.288 297.76-171.168 364.896z"  horiz-adv-x="1024" />

    
    <glyph glyph-name="tuiguanyuan_gongzhonghaotuiguang_icon" unicode="&#58958;" d="M512 880.352c-282.304 0-512-210.208-512-468.544 0-101.536 34.4-214.88 86.912-289.824-13.44-106.464-27.84-177.504-28-178.272-0.634-2.943-0.997-6.325-0.997-9.791 0-26.828 21.748-48.576 48.576-48.576 2.145 0 4.258 0.139 6.329 0.409 1.388 0.166 161.58 20.070 283.468 40.582 37.824-7.968 76.704-12.032 115.744-12.032 272.736 0 512 232.512 512 497.536-0.032 258.304-229.696 468.512-512.032 468.512zM512 11.552c-35.072 0-69.92 3.936-103.616 11.68-3.283 0.78-7.053 1.228-10.927 1.228-2.888 0-5.719-0.249-8.47-0.726-72.89-12.502-162.938-25.046-222.778-32.982 5.792 35.136 12.928 82.624 19.68 138.88 0.223 1.746 0.35 3.766 0.35 5.816 0 11.597-4.067 22.245-10.852 30.594-45.946 57.031-78.106 158.119-78.106 245.767 0 204.704 186.048 371.264 414.72 371.264 228.672 0 414.688-166.528 414.688-371.264 0.032-213.216-193.76-400.256-414.688-400.256zM236.512 406.496c0-35.346 28.654-64 64-64s64 28.654 64 64c0 35.346-28.654 64-64 64-35.346 0-64-28.654-64-64zM460.512 406.496c0-35.346 28.654-64 64-64s64 28.654 64 64c0 35.346-28.654 64-64 64-35.346 0-64-28.654-64-64zM684.512 406.496c0-35.346 28.654-64 64-64s64 28.654 64 64c0 35.346-28.654 64-64 64-35.346 0-64-28.654-64-64z"  horiz-adv-x="1024" />

    
    <glyph glyph-name="tuiguangyuan__icon" unicode="&#58943;" d="M512 896C229.2224 896 0 666.7776 0 384s229.2224-512 512-512 512 229.2224 512 512S794.7776 896 512 896z m102.4-768h-102.4V537.6h-13.6192L358.4 451.6096v96.512L500.2752 640H614.4v-512z"  horiz-adv-x="1024" />

    
    <glyph glyph-name="tuiguangyuan__icon1" unicode="&#58944;" d="M512 896C229.2224 896 0 666.7776 0 384s229.2224-512 512-512 512 229.2224 512 512S794.7776 896 512 896z m179.2-768H332.8v70.4768l192.6144 181.888c52.5824 50.688 67.1232 76.0064 67.1232 110.72 0 37.4784-40.6784 67.3536-88.96 67.3536-50.432 0-94.0032-34.0224-94.0032-80.1792V486.4h-102.4v-8.1664C307.2 573.0048 392.1408 640 505.6 640c109.5168 0 188.0064-61.0816 188.0064-144.7424 0-62.4896-45.9776-109.3376-103.2448-164.1984L460.8 213.4016V204.8h230.4v-76.8z"  horiz-adv-x="1024" />

    
    <glyph glyph-name="tuiguangyuan__icon2" unicode="&#58947;" d="M512 896C229.2224 896 0 666.7776 0 384s229.2224-512 512-512 512 229.2224 512 512S794.7776 896 512 896z m-2.7392-776.96C390.144 119.04 312.32 179.2 307.2 281.6h105.6c3.2768-51.2 39.8336-75.8784 97.92-75.8784 55.168 0 93.9008 31.9232 93.9008 75.4432 0 47.0784-36.1728 77.2352-95.744 77.2352H435.2v76.8h72.6016c50.432 0 84.4032 26.2144 84.4032 68.6592 0 41.728-30.3104 63.1552-85.1456 63.1552-51.1488 0-85.1456-29.4144-88.0384-80.6144H317.44c4.0192 102.4 80.0256 161.8688 194.3808 161.8688 109.6192 0 185.1904-52.6592 185.1904-135.0656 0-63.1296-57.0112-106.5472-108.2112-117.9392v-2.1248c76.8-6.4256 128.6656-50.8928 128.6656-122.24 0-92.4416-86.528-151.8592-208.2048-151.8592z"  horiz-adv-x="1024" />

    
    <glyph glyph-name="tixian-shibai" unicode="&#58953;" d="M0 384c0-282.77 229.23-512 512-512s512 229.23 512 512c0 282.77-229.23 512-512 512-282.77 0-512-229.23-512-512zM128 384c0-212.077 171.923-384 384-384s384 171.923 384 384c0 212.077-171.923 384-384 384-212.077 0-384-171.923-384-384zM568.56 384l131.712 131.712c7.244 7.235 11.725 17.234 11.725 28.28s-4.481 21.045-11.724 28.28c-7.235 7.244-17.234 11.725-28.28 11.725-11.046 0-21.045-4.481-28.28-11.724l-131.712-131.712-131.712 131.712c-7.235 7.244-17.234 11.725-28.28 11.725s-21.045-4.481-28.28-11.724c-7.244-7.235-11.725-17.234-11.725-28.28 0-11.046 4.481-21.045 11.724-28.28l131.712-131.712-131.712-131.712c-7.268-7.239-11.765-17.254-11.765-28.32 0-22.074 17.894-39.968 39.968-39.968 0.024 0 0.048 0 0.073 0 10.236-0 20.476 3.904 28.284 11.712l131.712 131.728 131.712-131.712c7.824-7.824 18.048-11.728 28.288-11.728s20.464 3.904 28.288 11.712c7.244 7.235 11.725 17.234 11.725 28.28 0 11.046-4.481 21.045-11.724 28.28l-131.728 131.728z"  horiz-adv-x="1024" />

    
    <glyph glyph-name="tixian-yiwancheng" unicode="&#58954;" d="M512 384m-512 0a512 512 0 1 1 1024 0 512 512 0 1 1-1024 0ZM512 384m-384 0a384 384 0 1 1 768 0 384 384 0 1 1-768 0ZM456 216c-10.24 0-20.48 3.904-28.288 11.712l-144 144a39.968 39.968 0 0 0 0 56.56 39.968 39.968 0 0 0 56.56 0l115.712-115.712 227.712 227.712a39.968 39.968 0 0 0 56.56 0 39.968 39.968 0 0 0 0-56.56l-256-256a39.76 39.76 0 0 0-28.256-11.712z"  horiz-adv-x="1024" />

    
    <glyph glyph-name="tixian-weiwancheng" unicode="&#58969;" d="M512 384m-512 0a512 512 0 1 1 1024 0 512 512 0 1 1-1024 0ZM512 384m-384 0a384 384 0 1 1 768 0 384 384 0 1 1-768 0ZM456 216c-10.24 0-20.48 3.904-28.288 11.712l-144 144a39.968 39.968 0 0 0 0 56.56 39.968 39.968 0 0 0 56.56 0l115.712-115.712 227.712 227.712a39.968 39.968 0 0 0 56.56 0 39.968 39.968 0 0 0 0-56.56l-256-256a39.76 39.76 0 0 0-28.256-11.712z"  horiz-adv-x="1024" />

    
    <glyph glyph-name="picture" unicode="&#58892;" d="M192 800h640c17.673 0 32 14.327 32 32s-14.327 32-32 32h-640c-17.673 0-32-14.327-32-32s14.327-32 32-32zM864 736h-704c-70.692 0-128-57.308-128-128v-576c0-70.692 57.308-128 128-128h704c70.692 0 128 57.308 128 128v576c0 70.692-57.308 128-128 128zM352 592c44.183 0 80-35.817 80-80s-35.817-80-80-80c-44.183 0-80 35.817-80 80 0 44.183 35.817 80 80 80zM512 64h-320s7.264 262.016 155.264 262.016c82.048 0 123.68-72.672 144.544-142.816 17.248 103.552 58.816 240.8 157.664 240.8 156-0 182.528-360 182.528-360h-320z"  horiz-adv-x="1024" />

    
    <glyph glyph-name="qianggouye_pinglun_icon" unicode="&#58970;" d="M873.411765 865.882353H150.588235a120.470588 120.470588 0 0 1-120.470588-120.470588v-602.352941a120.470588 120.470588 0 0 1 120.470588-120.470589h210.82353l150.588235-120.470588 150.588235 120.470588h210.82353a120.470588 120.470588 0 0 1 120.470588 120.470589V745.411765a120.470588 120.470588 0 0 1-120.470588 120.470588zM466.823529 253.650824l-193.174588 193.174588 85.172706 85.172706 108.001882-107.971765 198.354824 198.324706 85.172706-85.172706-283.52753-283.527529z"  horiz-adv-x="1024" />

    
    <glyph glyph-name="woshituiguangyuan_tuiguangdingdan_icon" unicode="&#58971;" d="M881.777778-99.555556H142.222222a85.333333 85.333333 0 0 0-85.333333 85.333334V696.888889a85.333333 85.333333 0 0 0 85.333333 85.333333h85.333334v-113.777778a56.888889 56.888889 0 0 1 56.888888-56.888888h455.111112a56.888889 56.888889 0 0 1 56.888888 56.888888V782.222222h85.333334a85.333333 85.333333 0 0 0 85.333333-85.333333v-711.111111a85.333333 85.333333 0 0 0-85.333333-85.333334z m-568.888889 256h199.111111a28.444444 28.444444 0 0 1 0 56.888889h-199.111111a28.444444 28.444444 0 0 1 0-56.888889z m398.222222 256H312.888889a28.444444 28.444444 0 0 1 0-56.888888h398.222222a28.444444 28.444444 0 0 1 0 56.888888z m28.444445 341.333334v-28.444445a56.888889 56.888889 0 0 0-56.888889-56.888889H341.333333a56.888889 56.888889 0 0 0-56.888889 56.888889V753.777778a113.777778 113.777778 0 0 0 113.777778 113.777778h227.555556a113.777778 113.777778 0 0 0 113.777778-113.777778z"  horiz-adv-x="1024" />

    
    <glyph glyph-name="tab_yule_icon" unicode="&#58972;" d="M1021.531767-90.438662l-32.886522-32.886521-100.334127 100.334126c-54.493013-38.770744-130.383197-34.072669-179.247823 14.791958l-218.53024 192.807118-24.397426-24.002044c-122.382516-28.421025-258.347584 10.535781-353.797573 104.497271a365.379955 365.379955 0 0 0 0 522.463101c146.547364 144.268101 384.148995 144.268101 530.673102 0 100.334126-98.775854 125.49906-240.439082 88.449393-365.728822l-16.257199-16.001363 191.179073-216.669616c48.864627-48.864627 53.539443-124.754811 14.791957-179.247823l100.357385-100.357385zM570.702674 811.266039L110.221596 327.527167 165.668179 267.38251l465.155894 488.413689-60.121399 55.46984z"  horiz-adv-x="1024" />

    
    <glyph glyph-name="tab_kefang_icon" unicode="&#58973;" d="M930.909091 384H93.090909c-51.409455 0-93.090909-36.235636-93.090909-80.942545V-81.454545h93.090909v93.090909a69.818182 69.818182 0 0 0 69.818182 69.818181h698.181818a69.818182 69.818182 0 0 0 69.818182-69.818181v-93.090909h93.090909V303.057455C1024 347.764364 982.318545 384 930.909091 384z m23.272727 418.909091a69.818182 69.818182 0 0 1-69.818182 69.818182H139.636364a69.818182 69.818182 0 0 1-69.818182-69.818182v-372.363636h884.363636V802.909091zM465.454545 546.909091a46.545455 46.545455 0 0 0-46.545454-46.545455h-186.181818a46.545455 46.545455 0 0 0-46.545455 46.545455v93.090909a46.545455 46.545455 0 0 0 46.545455 46.545455h186.181818a46.545455 46.545455 0 0 0 46.545454-46.545455v-93.090909z m372.363637 0a46.545455 46.545455 0 0 0-46.545455-46.545455h-186.181818a46.545455 46.545455 0 0 0-46.545454 46.545455v93.090909a46.545455 46.545455 0 0 0 46.545454 46.545455h186.181818a46.545455 46.545455 0 0 0 46.545455-46.545455v-93.090909z"  horiz-adv-x="1024" />

    
    <glyph glyph-name="tab_canyin_icon" unicode="&#58974;" d="M930.909091 34.909091H116.363636s-108.381091 18.525091-116.363636 116.363636c0 274.920727 216.832 498.571636 488.727273 510.836364V756.363636h-128a34.909091 34.909091 0 0 0 0 69.818182h325.818182a34.909091 34.909091 0 1 0 0-69.818182H558.545455v-95.441454C819.479273 637.370182 1024 418.327273 1024 151.272727c0-99.770182-93.090909-116.363636-93.090909-116.363636zM34.909091-11.636364h954.181818a34.909091 34.909091 0 0 0 0-69.818181h-954.181818a34.909091 34.909091 0 0 0 0 69.818181z"  horiz-adv-x="1024" />

    
    <glyph glyph-name="tab_huiyishi_icon" unicode="&#58975;" d="M907.636364 151.272727h-172.427637l173.405091-279.272727H814.545455l-64.651637 116.363636H274.106182L209.454545-128H115.386182l170.658909 279.272727H116.363636a69.818182 69.818182 0 0 0-69.818181 69.818182V826.181818a69.818182 69.818182 0 0 0 69.818181 69.818182h791.272728a69.818182 69.818182 0 0 0 69.818181-69.818182v-605.090909a69.818182 69.818182 0 0 0-69.818181-69.818182z m-594.757819-93.090909h398.219637l-51.712 93.090909H364.613818l-51.735273-93.090909zM535.272727 640l93.090909-93.090909-116.363636-93.090909-93.090909 69.818182-162.909091-139.636364 46.545455-23.272727 116.363636 69.818182 93.090909-69.818182 302.545455 279.272727H535.272727z"  horiz-adv-x="1024" />

    
    <glyph glyph-name="tab_menpiao_icon" unicode="&#58976;" d="M1024 546.909091V686.545455a139.636364 139.636364 0 0 1-139.636364 139.636363H139.636364a139.636364 139.636364 0 0 1-139.636364-139.636363v-139.636364c77.800727-12.288 116.363636-81.664 116.363636-162.909091 0-82.501818-36.794182-152.157091-116.363636-162.909091v-139.636364a139.636364 139.636364 0 0 1 139.636364-139.636363h744.727272a139.636364 139.636364 0 0 1 139.636364 139.636363v139.636364c-79.569455 10.752-116.363636 80.407273-116.363636 162.909091 0 81.245091 38.562909 150.621091 116.363636 162.909091zM501.434182 244.363636h-211.595637c-100.398545-3.165091-38.469818 80.849455-38.469818 80.849455s70.935273 137.704727 96.186182 181.899636c30.068364 52.433455 67.933091 54.318545 96.186182 0 24.645818-42.309818 96.186182-181.899636 96.186182-181.899636s60.695273-81.477818-38.493091-80.849455z m208.849454 0h-58.344727L535.272727 449.582545s14.126545 28.811636 19.456 37.306182c30.370909 48.384 68.654545 50.129455 97.210182 0 24.901818-39.074909 97.233455-167.912727 97.233455-167.912727S810.542545 243.781818 710.283636 244.363636z"  horiz-adv-x="1024" />

    
    <glyph glyph-name="tuiguangyuan_wodetuiguang_icon" unicode="&#58963;" d="M741.052632 276.21052599999996a202.105263 202.105263 0 1 0-202.105264-202.105263c0 25.007158 4.742737 48.828632 13.042527 70.952421l-193.293474 135.599158C326.629053 245.086316 280.683789 222.315789 229.052632 222.315789a175.157895 175.157895 0 1 0 0 350.31579c51.415579 0 97.199158-22.554947 129.239579-57.829053l246.730105 147.375158A148.210526 148.210526 0 1 0 889.263158 720.842105a148.210526 148.210526 0 0 0-148.210526-148.210526 147.590737 147.590737 0 0 0-106.064843 44.94821L388.042105 470.069895c10.159158-22.177684 16.168421-46.618947 16.168421-72.596211 0-25.680842-5.847579-49.879579-15.76421-71.868631l189.278316-132.796632A201.647158 201.647158 0 0 0 741.052632 276.21052599999996z"  horiz-adv-x="1024" />

    
    <glyph glyph-name="my_public_icon" unicode="&#59001;" d="M512 842.105263C229.214316 842.105263 0 644.581053 0 400.949895c0-94.854737 34.735158-182.703158 93.857684-254.652632C71.706947 41.579789 60.227368-101.052632 60.227368-101.052632s182.622316 79.333053 224.229053 106.684632c68.527158-29.345684 145.785263-45.837474 227.516632-45.837474 282.785684 0 512 197.524211 512 441.155369C1024 644.581053 794.758737 842.105263 512 842.105263z m-229.052632-512a67.368421 67.368421 0 1 0 0 134.736842 67.368421 67.368421 0 0 0 0-134.736842z m242.526316 0a67.368421 67.368421 0 1 0 0 134.736842 67.368421 67.368421 0 0 0 0-134.736842z m242.526316 0a67.368421 67.368421 0 1 0 0 134.736842 67.368421 67.368421 0 0 0 0-134.736842z"  horiz-adv-x="1024" />

    
    <glyph glyph-name="tuiguangyuan_shouzhimingxi_icon" unicode="&#58964;" d="M862.315789 842.105263H161.684211a80.842105 80.842105 0 0 1-80.842106-80.842105v-754.526316a80.842105 80.842105 0 0 1 80.842106-80.842105h700.631578a80.842105 80.842105 0 0 1 80.842106 80.842105V761.263158a80.842105 80.842105 0 0 1-80.842106 80.842105zM485.052632 87.57894699999997h-188.631579v80.842106h188.631579v-80.842106z m242.526315 242.526316H296.421053v80.842105h431.157894v-80.842105z m0 242.526316H296.421053V653.473684h431.157894v-80.842105z"  horiz-adv-x="1024" />

    
    <glyph glyph-name="my_team_icon" unicode="&#59003;" d="M971.264 303.130947c14.767158-184.104421-107.789474-296.421053-107.789474-296.421052s69.955368 217.788632-132.015158 310.757052c-5.982316 1.805474-23.659789 10.482526-29.669052 12.611369 0 0 11.722105 7.275789 29.749895 16.734316 39.397053 64.700632 82.917053 163.220211 78.039578 225.792-30.450526 231.316211-134.736842 269.473684-134.736842 269.473684s219.998316 5.712842 269.473685-161.684211c21.692632-73.377684 23.04-188.065684-99.570527-290.842947 60.847158 12.099368 119.565474 0.485053 126.517895-86.420211z m-417.118316-12.234105c0.404211-5.685895 1.077895-11.398737 2.101895-17.057684 83.914105-5.12 161.765053-21.989053 219.136-78.039579 87.605895-85.611789 13.985684-209.300211-46.645895-269.93179h-592.842105C99.974737-38.211368 1.643789 110.160842 89.276632 195.799579c60.011789 58.637474 142.416842 74.374737 230.723368 78.659368 0.458105 3.125895 1.104842 6.063158 1.293474 9.431579-93.210947 57.856-158.450526 179.658105-158.450527 288.741053 0 148.830316 120.643368 269.473684 269.473685 269.473684s269.473684-120.643368 269.473684-269.473684c0-104.825263-60.254316-221.399579-147.644632-281.734737z"  horiz-adv-x="1024" />

    
    <glyph glyph-name="tuiguangyuan_yongjintixian_icon" unicode="&#58965;" d="M512 896C229.241263 896 0 666.758737 0 384s229.214316-512 512-512 512 229.241263 512 512S794.785684 896 512 896z m161.684211-485.052632v-53.894736h-134.736843v-53.894737h134.736843v-53.894737h-134.736843v-107.789474h-53.894736v107.789474h-134.736843v53.894737h134.736843v53.894737h-134.736843v53.894736h107.789474l-107.789474 188.631579h80.842106l80.842105-161.68421 80.842105 161.68421h80.842106l-107.789474-188.631579h107.789474z"  horiz-adv-x="1024" />

    
    <glyph glyph-name="my_wallet_icon" unicode="&#59005;" d="M970.105263 707.368421a80.842105 80.842105 0 0 1-80.842105 80.842105H134.736842a80.842105 80.842105 0 0 1-80.842105-80.842105v-646.736842a80.842105 80.842105 0 0 1 80.842105-80.842105h754.526316a80.842105 80.842105 0 0 1 80.842105 80.842105v188.631579H700.631579a134.736842 134.736842 0 0 0 0 269.473684h269.473684V707.368421zM646.736842 384a80.842105 80.842105 0 1 1 161.684211 0 80.842105 80.842105 0 0 1-161.684211 0z"  horiz-adv-x="1024" />

    
    <glyph glyph-name="dianhua_icon" unicode="&#59074;" d="M323.5 637.1c14.5 4.8 30.3 3 43.6-4.4l40.8-23c36.5-22.3 34-55.4 34-55.4 5.2-32.4-13.8-51.8-44.8-93.3-5.4-7.3-5.6-17.1-0.6-24.6 28-41.6 51.6-63.9 89.2-92.1 17.5-13.1 34.4-9.3 47.2 0.5 22.6 17.5 39.8 31.4 64.8 33.1 17.4 1.1 34.6-4.6 48.2-15.4l29.8-23.7c0.7-0.5 1.3-1.1 1.9-1.7 24.8-25 30.4-45.4 23.3-66.5-6.3-19-22.9-43.2-36.4-59.9-12-14.9-37.6-18.5-53.8-18.5-181.2 0-341.1 189-354.5 345.3-1.2 14.4 2.5 28.7 10.5 40.7l21.8 32.4c8.6 12.8 20.9 21.9 35 26.5z"  horiz-adv-x="1024" />

    
    <glyph glyph-name="dizhi_icon" unicode="&#59075;" d="M511.2 686c-110.9-0.2-201.1-91.6-199.9-202.5 0.5-41.2 13.1-79.6 35.2-111 33.6-47.9 142.9-283.5 164-283.5 20.6 0 132.2 233.8 164.5 281.2 22.6 33.1 36.8 72.6 36.8 115.6 0 110.7-89.9 200.4-200.6 200.2z m0.4-264.9c-36.5 0-66.1 29.6-66.1 66.1s29.6 66.1 66.1 66.1c36.5 0 66.1-29.6 66.1-66.1s-29.6-66.1-66.1-66.1z"  horiz-adv-x="1024" />

    
    <glyph glyph-name="tab_chanpinyudingqiapasi_icon" unicode="&#59076;" d="M551.5 704.2v-639.9L249.6 373.8c-5.6 5.6-5.6 14.7 0 20.3l301.9 310.1zM777.2 486.8V282c-56.6 0-102.4 45.9-102.4 102.4s45.9 102.4 102.4 102.4zM613.5 704.2H593v-256.4h20.5c70.8 0 128.2 57.4 128.2 128.2s-57.4 128.2-128.2 128.2zM613.5 320.7H593v-256.4h20.5c70.8 0 128.2 57.4 128.2 128.2s-57.4 128.2-128.2 128.2z"  horiz-adv-x="1024" />

    
    <glyph glyph-name="tab_kefangyuding_icon" unicode="&#59077;" d="M658.1 512.2h-19.6v-447.9h123.6c3.3 0 6 2.7 6 6V402.2c0 60.5-49.5 110-110 110zM492.1 689.2H332.2c-58.5 0-106-47.5-106-106v-518.9h371.9V583.2c0 58.6-47.5 106-106 106z m1.7-481.4c0-19.8-16.2-36-36-36h-91.3c-19.8 0-36 16.2-36 36V249c0 19.8 16.2 36 36 36h91.3c19.8 0 36-16.2 36-36v-41.2z m0 236.9c0-19.8-16.2-36-36-36h-91.3c-19.8 0-36 16.2-36 36V523c0 19.8 16.2 36 36 36h91.3c19.8 0 36-16.2 36-36v-78.3z"  horiz-adv-x="1024" />

    
    <glyph glyph-name="tab_wodedingdan_icon" unicode="&#59078;" d="M425 650.3h177.4c11.9 0 21.6 9.7 21.6 21.6v10.7c0 11.9-9.7 21.6-21.6 21.6H425c-11.9 0-21.6-9.7-21.6-21.6v-10.7c0-11.8 9.7-21.6 21.6-21.6zM662.1 704.2h-1.6s-1.8-79.2-57.2-79.2h-183c-58 0-55.2 79.2-55.2 79.2h-3c-58.3 0-106-47.7-106-106v-427.9c0-58.3 47.7-106 106-106h300.1c58.3 0 106 47.7 106 106V598.2c-0.1 58.3-47.8 106-106.1 106z m-21.1-466c0-6.6-5.4-12-12-12H396.1c-6.6 0-12 5.4-12 12V246c0 6.6 5.4 12 12 12H629c6.6 0 12-5.4 12-12v-7.8z m0 127.9c0-6.6-5.4-12-12-12H396.1c-6.6 0-12 5.4-12 12V374c0 6.6 5.4 12 12 12H629c6.6 0 12-5.4 12-12v-7.9z m0 127.9c0-6.6-5.4-12-12-12H396.1c-6.6 0-12 5.4-12 12v7.9c0 6.6 5.4 12 12 12H629c6.6 0 12-5.4 12-12v-7.9z"  horiz-adv-x="1024" />

    
    <glyph glyph-name="liebiaoye_xianshiqianggou_icon" unicode="&#59081;" d="M297.1 327.2H313V463.8h23.4c-4.7-14.6-10.7-30-18.1-46.2 11.6-14.3 17.4-27.2 17.4-38.7 0-2.8-0.8-4.9-2.4-6.1-1.7-1-4.9-1.7-9.6-2-2 0-4.9 0.3-8.7 0.9l5.3-16.4c12.5 0.1 21.3 2.3 26.4 6.7 3.4 3.4 5.1 9.1 5.1 17.1-0.7 11.6-6.4 25.3-17.2 41.1 6.9 16.5 12.9 31.9 17.9 46.2V479h-55.4v-151.8z m124.1 40.1c9.1 4.8 17.2 11.4 24.4 20l-10.4 10.4c-6.8-8.2-14-14.5-21.5-18.9-4.3 7.8-7.3 15.9-8.9 24.2h30.5v76.3h-76.9V349c0-2.2-1.4-3.8-4.3-4.8L358 330c18.5 4.9 34.2 10 47.1 15.2l-3.8 15c-8.9-4.1-17.9-7.5-27.1-10.2v53.1h16c5.5-31.3 22.2-56.1 50.3-74.4l9 14.3c-11.7 6.7-21.2 14.8-28.3 24.3z m-47 96.5h45.2V448h-45.2v15.8z m0-46v15.5h45.2v-15.5h-45.2z m93.2-76.6h15.9v14.7h20.5v-10.6h15.7V473h-52v-131.8z m15.9 117.2h20.5v-35.3h-20.5v35.3z m0-50.5h20.5v-37h-20.5v37z m85.6-28c-5.2 11.5-13.2 25.4-23.9 41.6l-13.5-8.4c9.9-15.7 17.9-29.9 23.9-42.6l13.5 9.4z m30.5 103.5h-16.5v-28.7h-56.8v-15.5h56.8v-88.7c0-4.4-2-6.7-6.1-6.7-7.8 0-17.3 0.3-28.3 0.9l3.6-15.7h30.2c11.5 0 17.2 5.8 17.2 17.4v92.8h19.1v15.5h-19.1v28.7z m170.1-68.5h-16.4v-10.6h-52.2v-15.4h52.2v-39.1c0-4.3-1.9-6.5-5.6-6.5-5.1 0-11.3 0.3-18.4 0.9l3.8-15.7h20.3c10.9 0 16.4 5.7 16.4 17.2v43.2h17.9v15.4h-17.9v10.6z m-89 19.9h13.1v15.7h-13.1v34.1h-15.9v-34.1h-10.9c0.5 4.4 0.9 11.1 1.4 20l-14.8 1.2c-0.7-20.4-3.7-39.2-9-56.5l15-4.3c2.3 8.9 4.1 16.8 5.5 23.9h13V393c-9.7-3.1-20.2-5.7-31.6-7.8l3.8-15.5c8.5 2.2 17.8 4.8 27.8 8v-50.3h15.9v56c3.2 1.1 8 3.1 14.3 5.8v15.4l-14.3-6v36.2z m70.9 18.3h30v14.8h-30V485H735v-17.1h-28.3v-14.8H735v-16.4h-37.7v-15.2H789v15.2h-37.5v16.4zM716 384.3l-12.6-7.8c8.2-9.9 14.4-18.8 18.8-26.6l12.8 9c-4.7 7.4-11 15.9-19 25.4zM924.4 405l15.2-4.3c4.3 10.9 7.8 22.3 10.4 34.3v10.1h-59.9v12.8h48.4v14.7h-48.4v12.1h-15.7v-12.1H825v-14.7h49.5v-12.8h-61.9v-14.8h121.1c-2.6-9.5-5.6-17.9-9.3-25.3z m-56.4-3.6l8.2 12.3c-10.5 5.3-22.2 9.8-35.3 13.5l-7.7-11.3c12.1-3.7 23.7-8.5 34.8-14.5z m85.9-34.3v15.5h-54.6c1.1 4.3 1.9 9.4 2.2 15.2v27.6H886v-27.6c-0.3-5.2-1.4-10.3-3.1-15.2h-29l7.5 11.4c-10.5 6.1-22.2 11.3-35.1 15.4l-7.7-11.3c11.5-3.9 22.6-9 33.3-15.5h-41.3v-15.5h63.5c-0.9-1-2.4-2.6-4.6-4.8-10.2-8.5-29.5-15.6-57.7-21.2l8.5-13.8c27.9 5.8 48.1 14 60.7 24.7l0.5 0.5c20.6-6.6 40.5-15.2 59.9-25.8l9 14.2c-17.9 8.6-37.7 16.1-59.5 22.5l2.2 3.6h60.8zM173.6 492.6c-4.3 0-7.8-3.5-7.8-7.8s3.5-7.8 7.8-7.8c39.2 0 71.1-31.9 71.1-71.1s-31.9-71.1-71.1-71.1c-39.2 0-71.1 31.9-71.1 71.1H121l-26.3 40.7-26.3-40.7H87c0-47.8 38.9-86.7 86.7-86.7s86.7 38.9 86.7 86.7-39 86.7-86.8 86.7zM182.5 451.3c0 4.1-3.3 7.4-7.4 7.4-4.1 0-7.4-3.3-7.4-7.4v-40.5l-31.8-44.6c-2.4-3.3-1.6-8 1.7-10.4 3.3-2.4 8-1.6 10.4 1.7l32.6 45.7c0.4 0.5 0.6 1.1 0.9 1.7 0.7 1.1 1.1 2.5 1.1 3.9v42.5zM213.7 439.4m-9.5 0a9.5 9.5 0 1 1 19 0 9.5 9.5 0 1 1-19 0ZM221.5 397.4m-9.5 0a9.5 9.5 0 1 1 19 0 9.5 9.5 0 1 1-19 0ZM198.2 367.5m-9.5 0a9.5 9.5 0 1 1 19 0 9.5 9.5 0 1 1-19 0Z"  horiz-adv-x="1024" />

    
    <glyph glyph-name="liebiaoye_rulishijian_rili_icon" unicode="&#59082;" d="M752.5 680.9h-68.8v59.2c0 19.6-15.4 35.5-34.4 35.5s-34.4-15.9-34.4-35.5v-59.2H385.5v59.2c0 19.6-15.4 35.5-34.4 35.5s-34.4-15.9-34.4-35.5v-59.2h-45.9c-76 0-137.7-63.6-137.7-142.1v-355.3c0-78.5 61.6-142.1 137.7-142.1h481.7c76 0 137.6 63.6 137.6 142.1V538.8c0 78.5-61.6 142.1-137.6 142.1zM305.2 136.2c-31.7 0-57.4 26.5-57.4 59.2s25.7 59.2 57.4 59.2 57.4-26.5 57.4-59.2c-0.1-32.7-25.8-59.2-57.4-59.2z m0 165.8c-31.7 0-57.4 26.5-57.4 59.2s25.7 59.2 57.4 59.2 57.4-26.5 57.4-59.2c-0.1-32.7-25.8-59.2-57.4-59.2z m206.4-165.8c-31.7 0-57.4 26.5-57.4 59.2s25.7 59.2 57.4 59.2 57.3-26.5 57.3-59.2c0.1-32.7-25.6-59.2-57.3-59.2z m0 165.8c-31.7 0-57.4 26.5-57.4 59.2s25.7 59.2 57.4 59.2 57.3-26.5 57.3-59.2c0.1-32.7-25.6-59.2-57.3-59.2z m206.5-165.8c-31.7 0-57.3 26.5-57.3 59.2s25.7 59.2 57.3 59.2c31.7 0 57.4-26.5 57.4-59.2-0.1-32.7-25.7-59.2-57.4-59.2z m0 165.8c-31.7 0-57.3 26.5-57.3 59.2s25.7 59.2 57.3 59.2c31.7 0 57.4-26.5 57.4-59.2-0.1-32.7-25.7-59.2-57.4-59.2z m126.2 165.8H179v23.7c0 78.5 61.6 142.1 137.7 142.1V598c0-19.6 15.4-35.5 34.4-35.5s34.4 15.9 34.4 35.5v35.5h229.4V598c0-19.6 15.4-35.5 34.4-35.5s34.4 15.9 34.4 35.5v35.5h22.9c76 0 137.7-63.6 137.7-142.1v-23.6z"  horiz-adv-x="1024" />

    
    <glyph glyph-name="chanpinyuding" unicode="&#59085;" d="M471.04 433.152c38.912 16.384 65.536 53.248 69.632 98.304v10.24H264.192v4.096 2.048 2.048 2.048c0 8.192 2.048 16.384 6.144 24.576v2.048s0 2.048 2.048 2.048c4.096 12.288 12.288 24.576 20.48 34.816l2.048 2.048 2.048 2.048 2.048 2.048s2.048 0 2.048 2.048l2.048 2.048 4.096 4.096c16.384 12.288 36.864 20.48 57.344 24.576h215.04c63.488 0 116.736-51.2 116.736-114.688 0-32.768-12.288-61.44-34.816-83.968-8.192-8.192-16.384-34.816 6.144-34.816h114.688c32.768 36.864 51.2 86.016 51.2 141.312 0 116.736-90.112 208.896-202.752 208.896H276.48h6.144-6.144-2.048c-108.544 0-196.608-88.064-196.608-198.656 0-61.44 26.624-116.736 71.68-151.552H430.08c14.336 4.096 28.672 8.192 40.96 12.288zM874.496 343.04H593.92c-14.336 0-28.672-4.096-40.96-8.192-38.912-16.384-65.536-53.248-69.632-98.304v-10.24h276.48v-10.24c0-8.192-2.048-16.384-6.144-24.576v-2.048s0-2.048-2.048-2.048c-4.096-12.288-12.288-24.576-20.48-34.816l-2.048-2.048-2.048-2.048-2.048-2.048s-2.048 0-2.048-2.048l-2.048-2.048-4.096-4.096c-16.384-12.288-34.816-20.48-57.344-24.576H444.416c-63.488 0-116.736 51.2-116.736 114.688 0 32.768 12.288 61.44 34.816 83.968 8.192 8.192 16.384 34.816-6.144 34.816h-114.688c-32.768-36.864-51.2-86.016-51.2-141.312 0-116.736 90.112-208.896 200.704-208.896H747.52h-6.144 8.192c108.544 0 196.608 88.064 196.608 198.656 0 57.344-28.672 112.64-71.68 147.456z"  horiz-adv-x="1024" />

    
    <glyph glyph-name="stars_icon" unicode="&#59087;" d="M512 844.8l160.914286-282.819048L999.619048 498.590476 772.87619 262.095238l41.44762-321.828571L512 79.238095 209.67619-57.295238 251.12381 262.095238 24.380952 498.590476l326.704762 60.952381L512 844.8"  horiz-adv-x="1024" />

    
    <glyph glyph-name="error_icon" unicode="&#59089;" d="M512 875.52C239.616 875.52 20.48 656.384 20.48 384s219.136-491.52 491.52-491.52 491.52 219.136 491.52 491.52S784.384 875.52 512 875.52z m174.08-675.84c-20.48-20.48-53.248-20.48-71.68 0l-106.496 106.496-92.16-92.16c-20.48-20.48-51.2-20.48-69.632 0-20.48 20.48-20.48 51.2 0 71.68l92.16 92.16-98.304 98.304c-20.48 20.48-20.48 53.248 0 71.68s53.248 20.48 71.68 0l96.256-96.256 102.4 102.4c20.48 20.48 51.2 20.48 69.632 0 20.48-20.48 20.48-51.2 0-71.68l-102.4-102.4 106.496-106.496c22.528-20.48 22.528-53.248 2.048-73.728z"  horiz-adv-x="1024" />

    
    <glyph glyph-name="sheshi_shaokao_icon2" unicode="&#59105;" d="M513.896296 93.866667c-208.592593 0-377.362963 168.77037-377.362963 377.362963v15.17037c0 18.962963 15.17037 32.237037 34.133334 32.237037h684.562963c18.962963 0 34.133333-15.17037 34.133333-32.237037v-15.17037c1.896296-208.592593-166.874074-377.362963-375.466667-377.362963zM204.8 452.266667c9.481481-161.185185 144.118519-290.133333 309.096296-290.133334s299.614815 128.948148 309.096297 290.133334H204.8zM845.748148 384c7.585185 28.444444 11.377778 56.888889 11.377778 87.22963v15.17037H170.666667v-15.17037c0-30.340741 3.792593-58.785185 11.377777-87.22963h663.703704zM716.8-93.866667c-13.274074 0-24.651852 7.585185-30.340741 18.962963l-102.4 204.8c-7.585185 17.066667-1.896296 37.925926 15.170371 45.511111 17.066667 7.585185 37.925926 1.896296 45.511111-15.17037l102.4-204.8c7.585185-17.066667 1.896296-37.925926-15.170371-45.511111-5.688889-1.896296-9.481481-3.792593-15.17037-3.792593zM307.2-93.866667c-5.688889 0-9.481481 1.896296-15.17037 3.792593-17.066667 7.585185-22.755556 28.444444-15.170371 45.511111L379.259259 160.237037c7.585185 17.066667 28.444444 22.755556 45.511111 15.17037 17.066667-7.585185 22.755556-28.444444 15.170371-45.511111l-102.4-204.8c-5.688889-11.377778-17.066667-18.962963-30.340741-18.962963zM682.666667-25.6H341.333333c-18.962963 0-34.133333 15.17037-34.133333 34.133333S322.37037 42.666667 341.333333 42.666667h341.333334c18.962963 0 34.133333-15.17037 34.133333-34.133334s-15.17037-34.133333-34.133333-34.133333zM375.466667 554.666667c-18.962963 0-34.133333 15.17037-34.133334 34.133333 0 5.688889-7.585185 20.859259-13.274074 32.237037-9.481481 20.859259-20.859259 43.614815-20.859259 70.162963 0 24.651852 11.377778 47.407407 20.859259 66.37037 5.688889 13.274074 13.274074 26.548148 13.274074 36.02963v15.17037c0 18.962963 15.17037 34.133333 34.133334 34.133334s34.133333-15.17037 34.133333-34.133334v-15.17037c0-24.651852-11.377778-47.407407-20.859259-66.37037-5.688889-13.274074-13.274074-28.444444-13.274074-36.02963 0-9.481481 7.585185-24.651852 15.17037-39.822222 9.481481-20.859259 18.962963-41.718519 18.962963-62.577778 0-18.962963-15.17037-34.133333-34.133333-34.133333zM512 554.666667c-18.962963 0-34.133333 15.17037-34.133333 34.133333 0 5.688889-7.585185 20.859259-13.274074 32.237037-9.481481 20.859259-20.859259 43.614815-20.85926 70.162963 0 24.651852 11.377778 47.407407 20.85926 66.37037 5.688889 13.274074 13.274074 28.444444 13.274074 36.02963v15.17037c0 18.962963 15.17037 34.133333 34.133333 34.133334s34.133333-15.17037 34.133333-34.133334v-15.17037c0-24.651852-11.377778-47.407407-20.859259-66.37037-5.688889-13.274074-13.274074-28.444444-13.274074-36.02963 0-9.481481 7.585185-24.651852 15.17037-39.822222 9.481481-20.859259 18.962963-41.718519 18.962963-62.577778 0-18.962963-15.17037-34.133333-34.133333-34.133333zM648.533333 554.666667c-18.962963 0-34.133333 15.17037-34.133333 34.133333 0 5.688889-7.585185 20.859259-13.274074 32.237037-9.481481 20.859259-20.859259 43.614815-20.859259 70.162963 0 24.651852 11.377778 47.407407 20.859259 66.37037 5.688889 13.274074 13.274074 28.444444 13.274074 36.02963v15.17037c0 18.962963 15.17037 34.133333 34.133333 34.133334s34.133333-15.17037 34.133334-34.133334v-15.17037c0-24.651852-11.377778-47.407407-20.85926-66.37037-5.688889-13.274074-13.274074-28.444444-13.274074-36.02963 0-9.481481 7.585185-24.651852 15.170371-39.822222 9.481481-20.859259 18.962963-41.718519 18.962963-62.577778 0-18.962963-15.17037-34.133333-34.133334-34.133333z"  horiz-adv-x="1024" />

    
    <glyph glyph-name="sheshi_shiwu_icon" unicode="&#59106;" d="M648.533333 8.533333H68.266667c-18.962963 0-34.133333 15.17037-34.133334 34.133334s15.17037 34.133333 34.133334 34.133333h580.266666c18.962963 0 34.133333-15.17037 34.133334-34.133333s-15.17037-34.133333-34.133334-34.133334zM955.733333 8.533333h-136.533333c-18.962963 0-34.133333 15.17037-34.133333 34.133334s15.17037 34.133333 34.133333 34.133333h136.533333c18.962963 0 34.133333-15.17037 34.133334-34.133333s-15.17037-34.133333-34.133334-34.133334zM989.866667 213.333333c0-37.925926-30.340741-68.266667-68.266667-68.266666H102.4c-37.925926 0-68.266667 30.340741-68.266667 68.266666s30.340741 68.266667 68.266667 68.266667h819.2c37.925926 0 68.266667-30.340741 68.266667-68.266667zM887.466667 213.333333c-18.962963 0-34.133333 15.17037-34.133334 34.133334 0 172.562963-128.948148 360.296296-339.437037 360.296296-189.62963 0-343.22963-161.185185-343.229629-360.296296 0-18.962963-15.17037-34.133333-34.133334-34.133334s-34.133333 15.17037-34.133333 34.133334c0 237.037037 183.940741 428.562963 411.496296 428.562963 223.762963 0 407.703704-191.525926 407.703704-428.562963 0-18.962963-15.17037-34.133333-34.133333-34.133334zM508.207407 704.474074m-66.37037 0a66.37037 66.37037 0 1 1 132.740741 0 66.37037 66.37037 0 1 1-132.740741 0Z"  horiz-adv-x="1024" />

    
    <glyph glyph-name="sheshi_tuoxie_icon2" unicode="&#59107;" d="M477.866667 315.733333H170.666667c-18.962963 0-34.133333 15.17037-34.133334 34.133334V640c0 104.296296 83.437037 187.733333 187.733334 187.733333S512 744.296296 512 640v-290.133333c0-18.962963-15.17037-34.133333-34.133333-34.133334zM204.8 384h238.933333V640c0 66.37037-53.096296 119.466667-119.466666 119.466667s-119.466667-53.096296-119.466667-119.466667V384zM375.466667-59.733333h-102.4C216.177778-59.733333 170.666667-14.222222 170.666667 42.666667V349.866667c0 18.962963 15.17037 34.133333 34.133333 34.133333s34.133333-15.17037 34.133333-34.133333V42.666667c0-18.962963 15.17037-34.133333 34.133334-34.133334h102.4c18.962963 0 34.133333 15.17037 34.133333 34.133334V349.866667c0 18.962963 15.17037 34.133333 34.133333 34.133333s34.133333-15.17037 34.133334-34.133333V42.666667c0-56.888889-45.511111-102.4-102.4-102.4zM785.066667-59.733333H682.666667c-56.888889 0-102.4 45.511111-102.4 102.4V384c0 18.962963 15.17037 34.133333 34.133333 34.133333s34.133333-15.17037 34.133333-34.133333v-341.333333c0-18.962963 15.17037-34.133333 34.133334-34.133334h102.4c18.962963 0 34.133333 15.17037 34.133333 34.133334v102.4c0 18.962963 15.17037 34.133333 34.133333 34.133333s34.133333-15.17037 34.133334-34.133333V42.666667c0-56.888889-45.511111-102.4-102.4-102.4zM853.333333 247.466667c-18.962963 0-34.133333 15.17037-34.133333 34.133333V384c0 18.962963 15.17037 34.133333 34.133333 34.133333s34.133333-15.17037 34.133334-34.133333v-102.4c0-18.962963-15.17037-34.133333-34.133334-34.133333zM853.333333 452.266667H614.4c-18.962963 0-34.133333 49.303704-34.133333 68.266666V384h307.2v136.533333c0-18.962963-15.17037-68.266667-34.133334-68.266666zM733.866667 793.6c-85.333333 0-153.6-68.266667-153.6-153.6v-153.6c0 18.962963 15.17037 34.133333 34.133333 34.133333H853.333333c18.962963 0 34.133333-15.17037 34.133334-34.133333v153.6c0 85.333333-68.266667 153.6-153.6 153.6zM887.466667 315.733333H580.266667c-18.962963 0-34.133333 15.17037-34.133334 34.133334V640c0 104.296296 83.437037 187.733333 187.733334 187.733333s187.733333-83.437037 187.733333-187.733333v-290.133333c0-18.962963-15.17037-34.133333-34.133333-34.133334zM614.4 384H853.333333V640c0 66.37037-53.096296 119.466667-119.466666 119.466667s-119.466667-53.096296-119.466667-119.466667V384zM443.733333 452.266667H170.666667c-18.962963 0-34.133333 15.17037-34.133334 34.133333S151.703704 520.533333 170.666667 520.533333h273.066666c18.962963 0 34.133333-15.17037 34.133334-34.133333s-15.17037-34.133333-34.133334-34.133333z"  horiz-adv-x="1024" />

    
    <glyph glyph-name="sheshi_wuting_icon" unicode="&#59108;" d="M512 622.933333c-18.962963 0-34.133333 15.17037-34.133333 34.133334V861.866667C477.866667 880.82963 493.037037 896 512 896s34.133333-15.17037 34.133333-34.133333v-204.8c0-18.962963-15.17037-34.133333-34.133333-34.133334zM648.533333 827.733333c0-37.925926-30.340741-68.266667-68.266666-68.266666h-136.533334c-37.925926 0-68.266667 30.340741-68.266666 68.266666S405.807407 896 443.733333 896h136.533334c37.925926 0 68.266667-30.340741 68.266666-68.266667zM512 42.666667c-187.733333 0-341.333333 153.6-341.333333 341.333333S324.266667 725.333333 512 725.333333s341.333333-153.6 341.333333-341.333333-153.6-341.333333-341.333333-341.333333z m0 614.4c-149.807407 0-273.066667-123.259259-273.066667-273.066667S362.192593 110.933333 512 110.933333 785.066667 234.192593 785.066667 384 661.807407 657.066667 512 657.066667zM512 76.8c-5.688889 0-13.274074 1.896296-18.962963 5.688889-115.674074 77.748148-187.733333 153.6-185.837037 301.511111 0 138.42963 64.474074 254.103704 185.837037 335.644444 15.17037 11.377778 36.02963 5.688889 47.407407-9.481481 11.377778-15.17037 5.688889-36.02963-9.481481-47.407407-70.162963-47.407407-155.496296-134.637037-155.496296-278.755556 0-117.57037 54.992593-176.355556 155.496296-244.622222 15.17037-11.377778 20.859259-32.237037 9.481481-47.407408-5.688889-9.481481-17.066667-15.17037-28.444444-15.17037zM512 76.8c-11.377778 0-22.755556 5.688889-28.444444 15.17037-11.377778 15.17037-5.688889 36.02963 9.481481 47.407408 102.4 68.266667 157.392593 127.051852 155.496296 244.622222 0 144.118519-85.333333 231.348148-155.496296 278.755556-15.17037 11.377778-20.859259 32.237037-9.481481 47.407407 9.481481 15.17037 30.340741 20.859259 47.407407 9.481481 121.362963-81.540741 185.837037-197.214815 185.837037-335.644444 0-147.911111-70.162963-223.762963-185.837037-301.511111-5.688889-3.792593-13.274074-5.688889-18.962963-5.688889zM512 42.666667c-18.962963 0-34.133333 15.17037-34.133333 34.133333V657.066667c0 18.962963 15.17037 34.133333 34.133333 34.133333s34.133333-15.17037 34.133333-34.133333v-580.266667c0-18.962963-15.17037-34.133333-34.133333-34.133333zM785.066667 486.4H238.933333c-18.962963 0-34.133333 15.17037-34.133333 34.133333s15.17037 34.133333 34.133333 34.133334h546.133334c18.962963 0 34.133333-15.17037 34.133333-34.133334s-15.17037-34.133333-34.133333-34.133333zM204.8 418.133333h614.4v-68.266666H204.8zM648.533333 213.333333H273.066667c-18.962963 0-34.133333 15.17037-34.133334 34.133334s15.17037 34.133333 34.133334 34.133333h375.466666c18.962963 0 34.133333-15.17037 34.133334-34.133333s-15.17037-34.133333-34.133334-34.133334zM989.866667 349.866667h-68.266667c-18.962963 0-34.133333 15.17037-34.133333 34.133333s15.17037 34.133333 34.133333 34.133333h68.266667c18.962963 0 34.133333-15.17037 34.133333-34.133333s-15.17037-34.133333-34.133333-34.133333zM102.4 349.866667H34.133333C15.17037 349.866667 0 365.037037 0 384s15.17037 34.133333 34.133333 34.133333h68.266667c18.962963 0 34.133333-15.17037 34.133333-34.133333s-15.17037-34.133333-34.133333-34.133333zM512-128c-18.962963 0-34.133333 15.17037-34.133333 34.133333v68.266667c0 18.962963 15.17037 34.133333 34.133333 34.133333s34.133333-15.17037 34.133333-34.133333v-68.266667c0-18.962963-15.17037-34.133333-34.133333-34.133333zM912.118519 18.014815c-9.481481 0-17.066667 3.792593-24.651852 9.481481l-47.407408 47.407408c-13.274074 13.274074-13.274074 34.133333 0 47.407407s34.133333 13.274074 47.407408 0l47.407407-47.407407c13.274074-13.274074 13.274074-34.133333 0-47.407408-5.688889-5.688889-15.17037-9.481481-22.755555-9.481481zM111.881481 18.014815c-9.481481 0-17.066667 3.792593-24.651851 9.481481-11.377778 15.17037-11.377778 36.02963 1.896296 49.303704l47.407407 47.407407c13.274074 13.274074 34.133333 13.274074 47.407408 0s13.274074-34.133333 0-47.407407l-47.407408-47.407407c-7.585185-7.585185-15.17037-11.377778-24.651852-11.377778zM161.185185 632.414815c-9.481481 0-17.066667 3.792593-24.651852 9.481481l-47.407407 47.407408C75.851852 704.474074 75.851852 725.333333 89.125926 738.607407s34.133333 13.274074 47.407407 0l47.407408-47.407407c13.274074-13.274074 13.274074-34.133333 0-47.407407-5.688889-7.585185-15.17037-11.377778-22.755556-11.377778zM862.814815 632.414815c-9.481481 0-17.066667 3.792593-24.651852 9.481481-13.274074 13.274074-13.274074 34.133333 0 47.407408l47.407407 47.407407c13.274074 13.274074 34.133333 13.274074 47.407408 0s13.274074-34.133333 0-47.407407l-47.407408-47.407408c-5.688889-5.688889-13.274074-9.481481-22.755555-9.481481z"  horiz-adv-x="1024" />

    
    <glyph glyph-name="sheshi_yuyi_icon2" unicode="&#59109;" d="M834.37037-46.459259H189.62963c-58.785185 0-108.088889 47.407407-108.088889 108.088889V706.37037c0 58.785185 47.407407 108.088889 108.088889 108.088889h144.118518v-72.059259H189.62963c-18.962963 0-36.02963-17.066667-36.02963-36.02963v-644.74074c0-18.962963 15.17037-36.02963 36.02963-36.02963h644.74074c18.962963 0 36.02963 15.17037 36.02963 36.02963V706.37037c0 18.962963-15.17037 36.02963-36.02963 36.02963H620.088889V814.459259H834.37037c58.785185 0 108.088889-47.407407 108.088889-108.088889v-644.74074c0-58.785185-49.303704-108.088889-108.088889-108.088889zM439.940741 420.02963c-15.17037 0-28.444444 9.481481-34.133334 24.651851l-108.088888 322.370371c-5.688889 18.962963 3.792593 39.822222 22.755555 45.511111 18.962963 5.688889 39.822222-3.792593 45.511111-22.755556l108.088889-322.37037c5.688889-18.962963-3.792593-39.822222-22.755555-45.511111-3.792593-1.896296-7.585185-1.896296-11.377778-1.896296zM403.911111-46.459259c-18.962963 0-36.02963 15.17037-36.02963 34.133333 0 28.444444-7.585185 280.651852 0 329.955556C379.259259 380.207407 553.718519 725.333333 587.851852 793.6c9.481481 17.066667 30.340741 24.651852 47.407407 15.17037 17.066667-9.481481 24.651852-30.340741 15.170371-47.407407-98.607407-195.318519-204.8-420.977778-212.385186-455.111111-5.688889-32.237037-1.896296-210.488889 0-314.785185 3.792593-20.859259-13.274074-36.02963-34.133333-37.925926zM584.059259 365.037037v-106.192593c0-49.303704 39.822222-91.022222 91.022222-91.022222h70.162963c49.303704 0 91.022222 39.822222 91.022223 91.022222v104.296297s0 20.859259-17.066667 20.859259H604.918519c-20.859259 0-20.859259-18.962963-20.85926-18.962963zM548.02963 634.311111h-178.251852c-18.962963 0-36.02963 15.17037-36.02963 36.02963s15.17037 36.02963 36.02963 36.029629h178.251852c18.962963 0 36.02963-15.17037 36.029629-36.029629s-17.066667-36.02963-36.029629-36.02963z"  horiz-adv-x="1024" />

    
    <glyph glyph-name="sheshi_yongchi_icon2" unicode="&#59110;" d="M853.333333 110.933333c-24.651852 0-47.407407 11.377778-66.37037 20.85926-13.274074 5.688889-26.548148 13.274074-36.02963 13.274074s-22.755556-7.585185-36.029629-13.274074c-18.962963-9.481481-41.718519-20.859259-66.370371-20.85926s-47.407407 11.377778-66.37037 20.85926c-13.274074 5.688889-26.548148 13.274074-36.02963 13.274074s-22.755556-7.585185-36.029629-13.274074c-18.962963-9.481481-41.718519-20.859259-66.370371-20.85926-24.651852 0-47.407407 11.377778-66.37037 20.85926-13.274074 5.688889-26.548148 13.274074-36.02963 13.274074s-22.755556-7.585185-36.029629-13.274074c-18.962963-9.481481-41.718519-20.859259-66.370371-20.85926s-47.407407 11.377778-66.37037 20.85926c-13.274074 5.688889-26.548148 13.274074-36.02963 13.274074-13.274074 0-34.133333-15.17037-43.614814-24.651852-13.274074-13.274074-34.133333-13.274074-47.407408 0s-13.274074 34.133333 0 47.407407c3.792593 5.688889 43.614815 45.511111 91.022222 45.511111 24.651852 0 47.407407-11.377778 66.370371-20.859259 13.274074-5.688889 26.548148-13.274074 36.029629-13.274074s22.755556 7.585185 36.02963 13.274074c18.962963 9.481481 41.718519 20.859259 66.37037 20.859259s47.407407-11.377778 66.370371-20.859259c13.274074-5.688889 26.548148-13.274074 36.029629-13.274074s22.755556 7.585185 36.02963 13.274074c18.962963 9.481481 41.718519 20.859259 66.37037 20.859259 24.651852 0 47.407407-11.377778 66.370371-20.859259 13.274074-5.688889 26.548148-13.274074 36.029629-13.274074s22.755556 7.585185 36.02963 13.274074c18.962963 9.481481 41.718519 20.859259 66.37037 20.859259 24.651852 0 47.407407-11.377778 66.370371-20.859259 13.274074-5.688889 26.548148-13.274074 36.029629-13.274074 17.066667 0 62.577778 18.962963 87.22963 30.340741 17.066667 7.585185 37.925926 1.896296 45.511111-15.170371 7.585185-17.066667 1.896296-37.925926-15.17037-45.511111-13.274074-5.688889-77.748148-37.925926-117.570371-37.925926zM853.333333-25.6c-24.651852 0-47.407407 11.377778-66.37037 20.859259-13.274074 5.688889-26.548148 13.274074-36.02963 13.274074s-22.755556-7.585185-36.029629-13.274074c-18.962963-9.481481-41.718519-20.859259-66.370371-20.859259s-47.407407 11.377778-66.37037 20.859259c-13.274074 5.688889-26.548148 13.274074-36.02963 13.274074s-22.755556-7.585185-36.029629-13.274074c-18.962963-9.481481-41.718519-20.859259-66.370371-20.859259-24.651852 0-47.407407 11.377778-66.37037 20.859259-13.274074 5.688889-26.548148 13.274074-36.02963 13.274074s-22.755556-7.585185-36.029629-13.274074c-18.962963-9.481481-41.718519-20.859259-66.370371-20.859259s-47.407407 11.377778-66.37037 20.859259c-13.274074 5.688889-26.548148 13.274074-36.02963 13.274074-13.274074 0-34.133333-15.17037-43.614814-24.651852-13.274074-13.274074-34.133333-13.274074-47.407408 0s-13.274074 34.133333 0 47.407408c3.792593 3.792593 45.511111 43.614815 92.918519 43.614815 24.651852 0 47.407407-11.377778 66.37037-20.85926 13.274074-5.688889 26.548148-13.274074 36.02963-13.274074s22.755556 7.585185 36.029629 13.274074c18.962963 9.481481 41.718519 20.859259 66.370371 20.85926s47.407407-11.377778 66.37037-20.85926c13.274074-5.688889 26.548148-13.274074 36.02963-13.274074s22.755556 7.585185 36.029629 13.274074c18.962963 9.481481 41.718519 20.859259 66.370371 20.85926 24.651852 0 47.407407-11.377778 66.37037-20.85926 13.274074-5.688889 26.548148-13.274074 36.02963-13.274074s22.755556 7.585185 36.029629 13.274074c18.962963 9.481481 41.718519 20.859259 66.370371 20.85926 24.651852 0 47.407407-11.377778 66.37037-20.85926 13.274074-5.688889 26.548148-13.274074 36.02963-13.274074 17.066667 0 62.577778 18.962963 87.229629 30.340741 17.066667 7.585185 37.925926 1.896296 45.511111-15.17037 7.585185-17.066667 1.896296-37.925926-15.17037-45.511111-15.17037-3.792593-79.644444-36.02963-119.466667-36.02963zM273.066667 213.333333c-11.377778 0-22.755556 5.688889-28.444445 17.066667-9.481481 17.066667-3.792593 37.925926 11.377778 47.407407l132.740741 79.644445-106.192593 106.192592c-7.585185 7.585185-11.377778 17.066667-9.481481 26.548149 0 9.481481 5.688889 18.962963 13.274074 24.651851L559.407407 717.748148c13.274074 9.481481 32.237037 9.481481 45.511112-3.792592l34.133333-34.133334c7.585185-7.585185 9.481481-15.17037 9.481481-26.548148s-5.688889-18.962963-11.377777-24.651852l-174.45926-146.014815L705.422222 270.222222c13.274074-13.274074 15.17037-34.133333 3.792593-47.407407-13.274074-13.274074-34.133333-15.17037-47.407408-3.792593L386.844444 459.851852c-7.585185 5.688889-11.377778 15.17037-11.377777 26.548148 0 3.792593 0 5.688889 1.896296 9.481481l-17.066667-13.274074 108.088889-108.088888c7.585185-7.585185 11.377778-17.066667 9.481482-28.444445-1.896296-11.377778-7.585185-18.962963-17.066667-24.651852l-170.666667-102.4c-5.688889-3.792593-11.377778-5.688889-17.066666-5.688889zM682.666667 452.266667m-102.4 0a102.4 102.4 0 1 1 204.8 0 102.4 102.4 0 1 1-204.8 0Z"  horiz-adv-x="1024" />

    
    <glyph glyph-name="sheshi_yingyangzaocan_icon" unicode="&#59111;" d="M786.962963-10.42963H168.77037c-56.888889 0-102.4 45.511111-102.4 102.4V366.933333c0 56.888889 49.303704 138.42963 138.42963 138.42963h549.925926c89.125926 0 138.42963-81.540741 138.42963-138.42963 0-18.962963-15.17037-34.133333-34.133334-34.133333s-34.133333 15.17037-34.133333 34.133333-20.859259 68.266667-68.266667 68.266667h-549.925926c-47.407407 0-68.266667-49.303704-68.266666-68.266667v-274.962963c0-18.962963 15.17037-34.133333 34.133333-34.133333h618.192593c18.962963 0 34.133333 15.17037 34.133333 34.133333v136.533334c0 18.962963 15.17037 34.133333 34.133333 34.133333s34.133333-15.17037 34.133334-34.133333v-138.42963c-3.792593-54.992593-49.303704-100.503704-106.192593-100.503704zM206.696296 6.637037c-1.896296 0-3.792593-1.896296-3.792592-9.481481 0-28.444444 22.755556-47.407407 51.2-47.407408s51.2 17.066667 51.2 45.511111c0 5.688889-1.896296 11.377778-3.792593 11.377778h-94.814815z m445.62963 0c-1.896296 0-3.792593-1.896296-3.792593-9.481481 0-28.444444 22.755556-47.407407 51.2-47.407408s51.2 17.066667 51.2 45.511111c0 5.688889-1.896296 11.377778-3.792592 11.377778h-94.814815zM855.22963 401.066667h102.4v-68.266667h-102.4v68.266667z m-136.533334 379.259259H237.037037c-37.925926 0-68.266667-30.340741-68.266667-68.266667V687.407407s0-9.481481 9.481482-9.481481h9.481481s15.17037 0 15.170371-11.377778v-109.985185s1.896296-15.17037 11.377777-15.17037H739.555556c11.377778 0 11.377778 11.377778 11.377777 11.377777v113.777778c0 13.274074 11.377778 11.377778 11.377778 11.377778h15.17037c9.481481 0 9.481481 9.481481 9.481482 9.481481V710.162963c0 37.925926-30.340741 70.162963-68.266667 70.162963zM477.866667 91.97037c-75.851852 0-138.42963 60.681481-138.42963 138.42963s60.681481 138.42963 138.42963 138.42963 138.42963-62.577778 138.429629-138.42963-62.577778-138.42963-138.429629-138.42963z m0 206.696297c-37.925926 0-68.266667-30.340741-68.266667-68.266667s30.340741-68.266667 68.266667-68.266667 68.266667 30.340741 68.266666 68.266667-30.340741 68.266667-68.266666 68.266667zM477.866667 194.37037c-9.481481 0-17.066667 3.792593-24.651852 9.481482-13.274074 13.274074-13.274074 36.02963 0 49.303704l68.266666 68.266666c13.274074 13.274074 36.02963 13.274074 49.303704 0s13.274074-36.02963 0-49.303703l-68.266666-68.266667c-7.585185-5.688889-15.17037-9.481481-24.651852-9.481482z"  horiz-adv-x="1024" />

    
    <glyph glyph-name="sheshi_ktv_icon" unicode="&#59112;" d="M804.02963 332.8c-3.792593 0-5.688889 0-9.481482 1.896296-18.962963 5.688889-28.444444 24.651852-22.755555 41.718519 3.792593 13.274074 9.481481 28.444444 13.274074 45.511111 36.02963 108.088889 79.644444 244.622222-37.925926 329.955555-83.437037 60.681481-208.592593 62.577778-295.822222 1.896297-15.17037-11.377778-36.02963-5.688889-47.407408 9.481481-11.377778 15.17037-5.688889 36.02963 9.481482 47.407408 109.985185 75.851852 267.377778 73.955556 373.57037-3.792593 157.392593-115.674074 100.503704-290.133333 64.474074-405.807407-5.688889-15.17037-9.481481-30.340741-13.274074-43.614815-5.688889-15.17037-18.962963-24.651852-34.133333-24.651852zM597.333333 236.088889c-62.577778 0-125.155556 20.859259-182.044444 62.577778-149.807407 109.985185-115.674074 261.688889-94.814815 352.711111 3.792593 15.17037 5.688889 28.444444 9.481482 39.822222 3.792593 18.962963 20.859259 30.340741 39.822222 28.444444 18.962963-3.792593 30.340741-20.859259 28.444444-39.822222-1.896296-13.274074-5.688889-28.444444-9.481481-45.511111-20.859259-85.333333-47.407407-195.318519 66.37037-278.755555 75.851852-54.992593 155.496296-64.474074 233.244445-28.444445 17.066667 7.585185 37.925926 0 45.511111-17.066667 7.585185-17.066667 0-37.925926-17.066667-45.511111-37.925926-18.962963-77.748148-28.444444-119.466667-28.444444zM804.02963 332.8c-7.585185 0-13.274074 1.896296-20.85926 5.688889L343.22963 658.962963c-15.17037 11.377778-18.962963 32.237037-7.585186 47.407407s32.237037 18.962963 47.407408 7.585186l439.940741-320.474075c15.17037-11.377778 18.962963-32.237037 7.585185-47.407407-5.688889-9.481481-15.17037-13.274074-26.548148-13.274074zM582.162963 264.533333c3.792593 3.792593 7.585185 5.688889 7.585185 5.688889l-7.585185-5.688889zM582.162963 247.466667c-5.688889 0-9.481481 1.896296-13.274074 5.688889-5.688889 7.585185-5.688889 17.066667 1.896296 22.755555l7.585185 5.688889c7.585185 5.688889 17.066667 5.688889 22.755556 0 5.688889-5.688889 5.688889-17.066667 0-22.755556 0 0-3.792593-3.792593-9.481482-7.585185-1.896296-3.792593-5.688889-3.792593-9.481481-3.792592zM417.185185 298.666667c-102.4 73.955556-79.644444 153.6-79.644444 153.6l-146.014815-339.437037 119.466667-87.22963 271.17037 237.037037c-17.066667-11.377778-68.266667-34.133333-164.977778 36.02963zM310.992593 8.533333c-3.792593 0-7.585185 1.896296-9.481482 3.792593L182.044444 99.555556c-5.688889 3.792593-9.481481 13.274074-5.688888 20.859259L322.37037 459.851852c3.792593 7.585185 13.274074 11.377778 20.85926 9.481481 7.585185-3.792593 13.274074-11.377778 11.377777-20.859259 0-1.896296-17.066667-70.162963 73.955556-136.533333 89.125926-64.474074 132.740741-43.614815 144.118518-34.133334 7.585185 5.688889 17.066667 3.792593 22.755556-3.792592 5.688889-7.585185 5.688889-17.066667-1.896296-22.755556L322.37037 14.222222c-1.896296-3.792593-5.688889-5.688889-11.377777-5.688889zM212.385185 118.518519l98.607408-72.05926L521.481481 232.296296c-28.444444 3.792593-66.37037 17.066667-113.777777 51.2-47.407407 34.133333-70.162963 70.162963-81.540741 100.503704l-113.777778-265.481481zM144.118519 2.844444L128.948148-33.185185l62.577778-45.511111 30.340741 26.548148zM191.525926-95.762963c-3.792593 0-7.585185 1.896296-9.481482 3.792593l-62.577777 45.511111c-7.585185 3.792593-9.481481 13.274074-5.688889 20.859259l15.17037 36.02963c1.896296 5.688889 5.688889 7.585185 11.377778 9.481481 5.688889 1.896296 9.481481 0 15.17037-1.896296l77.748148-56.888889c3.792593-3.792593 7.585185-7.585185 7.585186-13.274074 0-5.688889-1.896296-9.481481-5.688889-13.274074l-30.340741-26.548148c-5.688889-1.896296-9.481481-3.792593-13.274074-3.792593z m-41.718519 68.266667l41.718519-30.340741 3.792593 3.792593L151.703704-21.807407l-1.896297-5.688889z"  horiz-adv-x="1024" />

    
    </font>
</defs>
</svg>
