<?xml version="1.0" standalone="no"?><!DOCTYPE svg PUBLIC "-//W3C//DTD SVG 1.1//EN" "http://www.w3.org/Graphics/SVG/1.1/DTD/svg11.dtd"><svg t="1577628475653" class="icon" viewBox="0 0 1024 1024" version="1.1" xmlns="http://www.w3.org/2000/svg" p-id="4478" xmlns:xlink="http://www.w3.org/1999/xlink" width="200" height="200"><defs><style type="text/css"></style></defs><path d="M961.849009 545.797659c7.829215-107.345609-22.247248-217.820986-93.097012-309.479392-86.377122-111.744547-217.012169-175.836059-358.414387-175.836059-100.881471 0-196.491249 32.69153-276.50014 94.532422-95.654535 73.934776-156.788911 180.695351-172.146833 300.617576a463.883413 463.883413 0 0 0-2.330542 22.582923l-0.015985 0.220586c-8.746727 112.086616 23.941607 221.906628 93.189723 311.493441 86.377122 111.744547 217.012169 175.832862 358.414386 175.832862 100.884668 0 196.494446-32.688333 276.50014-94.529225a452.291443 452.291443 0 0 0 73.925185-71.936711 22.432668 22.432668 0 0 0 10.073442-12.864338c52.240592-69.005151 82.665518-150.670038 89.912897-234.524804a22.154538 22.154538 0 0 0 0.489126-6.109281z m-124.787912 212.156073c-53.142119-3.11698-151.478855-64.737286-256.730492-181.679997 33.484362-26.665368 65.92014-55.306422 95.833561-84.730717 62.432319 51.58203 141.664363 80.408504 223.249327 80.408504 4.942412 0 9.894415-0.143861 14.849615-0.358053-9.910399 68.631114-36.508632 132.284649-77.202011 186.360263zM613.460111 118.263033c66.431644 17.138597 127.281496 50.805182 177.424919 98.445431 12.426362 38.209385-29.89424 120.219537-115.88134 212.223208a299.444313 299.444313 0 0 1-16.764559-19.792026c-64.235372-83.103493-80.737785-192.997034-44.77902-290.876613z m304.840685 408.321238c-76.505086 4.814536-151.926421-19.724892-210.768618-67.173325 63.778215-68.199532 111.55593-138.218101 125.727801-195.823097l0.08312 0.102301c58.727108 75.980794 88.256901 168.109144 84.957697 262.894121zM569.122263 109.394824c-38.155037 110.600056-18.558022 233.629671 53.704773 327.116705a344.789185 344.789185 0 0 0 20.859792 24.491474c-27.486972 26.901939-58.503325 54.293004-92.694202 81.389954a1302.16253 1302.16253 0 0 1-30.872492-38.372427c-123.186263-159.372008-176.034267-304.070232-166.389211-367.506378 49.155581-20.568874 102.013175-31.275302 156.606687-31.275302 19.868752 0 39.500933 1.406637 58.784653 4.155974zM261.209353 190.423527c14.964703-11.566395 30.562393-21.930755 46.652406-31.208167 2.829259 91.207643 68.861291 232.472392 176.849477 372.177054a1289.761743 1289.761743 0 0 0 30.725435 38.174218 1206.236259 1206.236259 0 0 1-64.228978 44.27391 354.849839 354.849839 0 0 0-20.207624-29.059848c-76.594599-99.084812-200.986095-148.991664-323.692823-132.156773 15.613674-104.519547 70.021766-197.364004 153.902107-262.200394z m-158.179563 308.13989c110.29635-19.059936 223.629759 24.421142 292.558184 113.592357a309.082976 309.082976 0 0 1 17.464681 25.095689c-118.883232 69.478293-217.251937 94.896869-257.366676 76.875926-37.323843-65.587662-55.495039-139.739827-52.656189-215.563972z m86.341956 265.787318c40.901177-0.306903 86.939777-14.008829 124.234848-28.465224 38.039949-14.747314 78.797265-34.830258 120.360201-59.059586 32.723499 74.794743 34.04382 160.059343 2.055608 237.350866-97.189048-17.851506-184.442122-70.25514-246.650657-149.826056z m570.70473 71.469964c-72.096556 55.728413-158.243502 85.184677-249.128257 85.184677-9.766539 0-19.469139-0.380431-29.107802-1.051781 32.78424-87.585551 28.95435-183.083438-9.376516-266.615316a1256.414848 1256.414848 0 0 0 72.333127-49.81734c45.169042 50.296875 92.21147 94.337411 136.942537 127.872923 34.101364 25.56883 78.81325 53.982904 121.629371 65.817839a413.839093 413.839093 0 0 1-43.29246 38.608998z" fill="#009FE8" p-id="4479"></path></svg>